  0
SECTION
  2
HEADER
  9
$ACADVER
  1
AC1014
  9
$ACADMAINTVER
 70
     0
  9
$DWGCODEPAGE
  3
KSC5601
  9
$INSBASE
 10
0.0
 20
0.0
 30
0.0
  9
$EXTMIN
 10
0.0
 20
0.0
 30
0.0
  9
$EXTMAX
 10
16.82
 20
11.88
 30
0.0
  9
$LIMMIN
 10
0.0
 20
0.0
  9
$LIMMAX
 10
12.0
 20
9.0
  9
$ORTHOMODE
 70
     0
  9
$REGENMODE
 70
     1
  9
$FILLMODE
 70
     0
  9
$QTEXTMODE
 70
     0
  9
$MIRRTEXT
 70
     1
  9
$DRAGMODE
 70
     2
  9
$LTSCALE
 40
1.0
  9
$OSMODE
 70
    37
  9
$ATTMODE
 70
     1
  9
$TEXTSIZE
 40
0.2
  9
$TRACEWID
 40
0.05
  9
$TEXTSTYLE
  7
STANDARD
  9
$CLAYER
  8
0
  9
$CELTYPE
  6
BYLAYER
  9
$CECOLOR
 62
   256
  9
$CELTSCALE
 40
1.0
  9
$DELOBJ
 70
     1
  9
$DISPSILH
 70
     0
  9
$DIMSCALE
 40
1.0
  9
$DIMASZ
 40
0.18
  9
$DIMEXO
 40
0.0625
  9
$DIMDLI
 40
0.38
  9
$DIMRND
 40
0.0
  9
$DIMDLE
 40
0.0
  9
$DIMEXE
 40
0.18
  9
$DIMTP
 40
0.0
  9
$DIMTM
 40
0.0
  9
$DIMTXT
 40
0.18
  9
$DIMCEN
 40
0.09
  9
$DIMTSZ
 40
0.0
  9
$DIMTOL
 70
     0
  9
$DIMLIM
 70
     0
  9
$DIMTIH
 70
     0
  9
$DIMTOH
 70
     0
  9
$DIMSE1
 70
     0
  9
$DIMSE2
 70
     0
  9
$DIMTAD
 70
     1
  9
$DIMZIN
 70
     0
  9
$DIMBLK
  1

  9
$DIMASO
 70
     1
  9
$DIMSHO
 70
     1
  9
$DIMPOST
  1

  9
$DIMAPOST
  1

  9
$DIMALT
 70
     0
  9
$DIMALTD
 70
     2
  9
$DIMALTF
 40
25.4
  9
$DIMLFAC
 40
1.0
  9
$DIMTOFL
 70
     0
  9
$DIMTVP
 40
0.0
  9
$DIMTIX
 70
     0
  9
$DIMSOXD
 70
     0
  9
$DIMSAH
 70
     0
  9
$DIMBLK1
  1

  9
$DIMBLK2
  1

  9
$DIMSTYLE
  2
STANDARD
  9
$DIMCLRD
 70
     0
  9
$DIMCLRE
 70
     0
  9
$DIMCLRT
 70
     0
  9
$DIMTFAC
 40
1.0
  9
$DIMGAP
 40
0.09
  9
$DIMJUST
 70
     0
  9
$DIMSD1
 70
     0
  9
$DIMSD2
 70
     0
  9
$DIMTOLJ
 70
     1
  9
$DIMTZIN
 70
     0
  9
$DIMALTZ
 70
     0
  9
$DIMALTTZ
 70
     0
  9
$DIMFIT
 70
     5
  9
$DIMUPT
 70
     0
  9
$DIMUNIT
 70
     2
  9
$DIMDEC
 70
     2
  9
$DIMTDEC
 70
     4
  9
$DIMALTU
 70
     2
  9
$DIMALTTD
 70
     2
  9
$DIMTXSTY
  7
STANDARD
  9
$DIMAUNIT
 70
     0
  9
$LUNITS
 70
     2
  9
$LUPREC
 70
     4
  9
$SKETCHINC
 40
0.1
  9
$FILLETRAD
 40
0.5
  9
$AUNITS
 70
     0
  9
$AUPREC
 70
     0
  9
$MENU
  1
.
  9
$ELEVATION
 40
0.0
  9
$PELEVATION
 40
0.0
  9
$THICKNESS
 40
0.0
  9
$LIMCHECK
 70
     0
  9
$BLIPMODE
 70
     0
  9
$CHAMFERA
 40
0.5
  9
$CHAMFERB
 40
0.5
  9
$CHAMFERC
 40
1.0
  9
$CHAMFERD
 40
0.0
  9
$SKPOLY
 70
     0
  9
$TDCREATE
 40
2450772.666465926
  9
$TDUPDATE
 40
2457065.456539352
  9
$TDINDWG
 40
0.0011565046
  9
$TDUSRTIMER
 40
0.0011565046
  9
$USRTIMER
 70
     1
  9
$ANGBASE
 50
0.0
  9
$ANGDIR
 70
     0
  9
$PDMODE
 70
     0
  9
$PDSIZE
 40
0.0
  9
$PLINEWID
 40
0.0
  9
$COORDS
 70
     1
  9
$SPLFRAME
 70
     0
  9
$SPLINETYPE
 70
     6
  9
$SPLINESEGS
 70
     8
  9
$ATTDIA
 70
     0
  9
$ATTREQ
 70
     1
  9
$HANDLING
 70
     1
  9
$HANDSEED
  5
188
  9
$SURFTAB1
 70
     6
  9
$SURFTAB2
 70
     6
  9
$SURFTYPE
 70
     6
  9
$SURFU
 70
     6
  9
$SURFV
 70
     6
  9
$UCSNAME
  2

  9
$UCSORG
 10
0.0
 20
0.0
 30
0.0
  9
$UCSXDIR
 10
1.0
 20
0.0
 30
0.0
  9
$UCSYDIR
 10
0.0
 20
1.0
 30
0.0
  9
$PUCSNAME
  2

  9
$PUCSORG
 10
0.0
 20
0.0
 30
0.0
  9
$PUCSXDIR
 10
1.0
 20
0.0
 30
0.0
  9
$PUCSYDIR
 10
0.0
 20
1.0
 30
0.0
  9
$USERI1
 70
     0
  9
$USERI2
 70
     0
  9
$USERI3
 70
     0
  9
$USERI4
 70
     0
  9
$USERI5
 70
     0
  9
$USERR1
 40
0.0
  9
$USERR2
 40
0.0
  9
$USERR3
 40
0.0
  9
$USERR4
 40
0.0
  9
$USERR5
 40
0.0
  9
$WORLDVIEW
 70
     1
  9
$SHADEDGE
 70
     3
  9
$SHADEDIF
 70
    70
  9
$TILEMODE
 70
     1
  9
$MAXACTVP
 70
    48
  9
$PINSBASE
 10
0.0
 20
0.0
 30
0.0
  9
$PLIMCHECK
 70
     0
  9
$PEXTMIN
 10
0.0
 20
0.0
 30
0.0
  9
$PEXTMAX
 10
0.0
 20
0.0
 30
0.0
  9
$PLIMMIN
 10
0.0
 20
0.0
  9
$PLIMMAX
 10
12.0
 20
9.0
  9
$UNITMODE
 70
     0
  9
$VISRETAIN
 70
     1
  9
$PLINEGEN
 70
     0
  9
$PSLTSCALE
 70
     1
  9
$TREEDEPTH
 70
  3020
  9
$PICKSTYLE
 70
     1
  9
$CMLSTYLE
  2
STANDARD
  9
$CMLJUST
 70
     0
  9
$CMLSCALE
 40
1.0
  9
$PROXYGRAPHICS
 70
     1
  9
$MEASUREMENT
 70
     0
  0
ENDSEC
  0
SECTION
  2
CLASSES
  0
CLASS
  1
LWPOLYLINE
  2
AcDbPolyline
  3
AutoCAD 2000
 90
       20
280
     0
281
     1
  0
CLASS
  1
IMAGE
  2
AcDbRasterImage
  3
ISM
 90
       21
280
     0
281
     1
  0
CLASS
  1
OLE2FRAME
  2
AcDbOle2Frame
  3
AutoCAD 2000
 90
       21
280
     0
281
     1
  0
CLASS
  1
HATCH
  2
AcDbHatch
  3
AutoCAD 2000
 90
       20
280
     0
281
     1
  0
CLASS
  1
DICTIONARYVAR
  2
AcDbDictionaryVar
  3
ObjectDBX Classes
 90
       20
280
     0
281
     0
  0
CLASS
  1
RASTERVARIABLES
  2
AcDbRasterVariables
  3
ISM
 90
       21
280
     0
281
     0
  0
CLASS
  1
IMAGEDEF
  2
AcDbRasterImageDef
  3
ISM
 90
       21
280
     0
281
     0
  0
CLASS
  1
IMAGEDEF_REACTOR
  2
AcDbRasterImageDefReactor
  3
ISM
 90
       21
280
     0
281
     0
  0
CLASS
  1
IDBUFFER
  2
AcDbIdBuffer
  3
ObjectDBX Classes
 90
       20
280
     0
281
     0
  0
CLASS
  1
SPATIAL_FILTER
  2
AcDbSpatialFilter
  3
ObjectDBX Classes
 90
       20
280
     0
281
     0
  0
CLASS
  1
XRECORD
  2
AcDbXrecord
  3
AutoCAD 2000
 90
       21
280
     0
281
     0
  0
CLASS
  1
SORTENTSTABLE
  2
AcDbSortentsTable
  3
"AutoCAD"
 90
        0
280
     0
281
     0
  0
CLASS
  1
LAYER_INDEX
  2
AcDbLayerIndex
  3
"Acad"
 90
        0
280
     0
281
     0
  0
CLASS
  1
SPATIAL_INDEX
  2
AcDbSpatialIndex
  3
"Acad"
 90
        0
280
     0
281
     0
  0
CLASS
  1
OBJECT_PTR
  2
CAseDLPNTableRecord
  3
"ASE-LPNTableRecord"
 90
        1
280
     0
281
     0
  0
CLASS
  1
LAYOUT
  2
AcDbLayout
  3
"AutoCAD 2000"
 90
        1
280
     0
281
     0
  0
CLASS
  1
PLOTSETTINGS
  2
AcDbPlotsettings
  3
"AutoCAD 2000"
 90
        1
280
     0
281
     0
  0
CLASS
  1
ACDBDICTIONARYWDFLT
  2
AcDbDictionaryWithDefault
  3
"AutoCAD 2000"
 90
        1
280
     0
281
     0
  0
CLASS
  1
ACDBPLACEHOLDER
  2
AcDbPlaceholder
  3
"AutoCAD 2000"
 90
        1
280
     0
281
     0
  0
CLASS
  1
VBA_PROJECT
  2
AcDbVbaProject
  3
"AutoCAD 2000"
 90
        1
280
     0
281
     0
  0
CLASS
  1
WIPEOUT
  2
AcDbWipeout
  3
"AutoCAD 2000"
 90
        1
280
     0
281
     1
  0
CLASS
  1
WIPEOUTVARIABLES
  2
AcDbWipeoutVariables
  3
"AutoCAD 2000"
 90
        1
280
     0
281
     0
  0
CLASS
  1
RTEXT
  2
RText
  3
RText|AutoCAD Express Tool|expresstools@autodesk.com
 90
        1
280
     0
281
     1
  0
CLASS
  1
ARCALIGNEDTEXT
  2
AcDbArcAlignedText
  3
RText|AutoCAD Express Tool|expresstools@autodesk.com
 90
        1
280
     0
281
     1
  0
ENDSEC
  0
SECTION
  2
TABLES
  0
TABLE
  2
VPORT
  5
8
100
AcDbSymbolTable
 70
     1
  0
VPORT
  5
25
100
AcDbSymbolTableRecord
100
AcDbViewportTableRecord
  2
*ACTIVE
 70
     0
 10
0.0
 20
0.0
 11
1.0
 21
1.0
 12
8.41
 22
5.94
 13
0.0
 23
0.0
 14
0.5
 24
0.5
 15
0.5
 25
0.5
 16
0.0
 26
0.0
 36
1.0
 17
0.0
 27
0.0
 37
0.0
 40
11.88
 41
1.415825
 42
50.0
 43
0.0
 44
0.0
 50
0.0
 51
0.0
 71
     0
 72
   100
 73
     1
 74
     1
 75
     0
 76
     0
 77
     0
 78
     0
  0
ENDTAB
  0
TABLE
  2
LTYPE
  5
5
100
AcDbSymbolTable
 70
     3
  0
LTYPE
  5
12
100
AcDbSymbolTableRecord
100
AcDbLinetypeTableRecord
  2
BYBLOCK
 70
     0
  3

 72
    65
 73
     0
 40
0.0
  0
LTYPE
  5
13
100
AcDbSymbolTableRecord
100
AcDbLinetypeTableRecord
  2
BYLAYER
 70
     0
  3

 72
    65
 73
     0
 40
0.0
  0
LTYPE
  5
14
100
AcDbSymbolTableRecord
100
AcDbLinetypeTableRecord
  2
CONTINUOUS
 70
     0
  3
Solid line
 72
    65
 73
     0
 40
0.0
  0
ENDTAB
  0
TABLE
  2
LAYER
  5
2
100
AcDbSymbolTable
 70
     2
  0
LAYER
  5
E
100
AcDbSymbolTableRecord
100
AcDbLayerTableRecord
  2
0
 70
     0
 62
     7
  6
CONTINUOUS
  0
LAYER
  5
34
100
AcDbSymbolTableRecord
100
AcDbLayerTableRecord
  2
\U+AC74\U+BB3C_\U+C678\U+BCBD
 70
     0
 62
     7
  6
CONTINUOUS
  0
ENDTAB
  0
TABLE
  2
STYLE
  5
3
100
AcDbSymbolTable
 70
     2
  0
STYLE
  5
F
100
AcDbSymbolTableRecord
100
AcDbTextStyleTableRecord
  2
STANDARD
 70
     0
 40
0.0
 41
1.0
 50
0.0
 71
     0
 42
0.2
  3
txt.shx
  4

  0
STYLE
  5
90
100
AcDbSymbolTableRecord
100
AcDbTextStyleTableRecord
  2
HORIZONTALWHGTXT
 70
     0
 40
0.0
 41
1.0
 50
0.0
 71
     0
 42
0.2
  3
txt.shx
  4
whgtxt.shx
  0
ENDTAB
  0
TABLE
  2
VIEW
  5
6
100
AcDbSymbolTable
 70
     0
  0
ENDTAB
  0
TABLE
  2
UCS
  5
7
100
AcDbSymbolTable
 70
     0
  0
ENDTAB
  0
TABLE
  2
APPID
  5
9
100
AcDbSymbolTable
 70
     1
  0
APPID
  5
10
100
AcDbSymbolTableRecord
100
AcDbRegAppTableRecord
  2
ACAD
 70
     0
  0
ENDTAB
  0
TABLE
  2
DIMSTYLE
  5
A
100
AcDbSymbolTable
 70
     1
  0
DIMSTYLE
105
1D
100
AcDbSymbolTableRecord
100
AcDbDimStyleTableRecord
  2
STANDARD
 70
     0
  3

  4

  5

  6

  7

 40
1.0
 41
0.18
 42
0.0625
 43
0.38
 44
0.18
 45
0.0
 46
0.0
 47
0.0
 48
0.0
 71
     0
 72
     0
 73
     1
 74
     1
 75
     0
 76
     0
 77
     0
 78
     0
140
0.18
141
0.09
142
0.0
143
25.4
144
1.0
145
0.0
146
1.0
147
0.09
170
     0
171
     2
172
     0
173
     0
174
     0
175
     0
176
     0
177
     0
178
     0
270
     2
271
     4
272
     4
273
     2
274
     2
275
     0
280
     0
281
     0
282
     0
283
     1
284
     0
285
     0
286
     0
287
     3
288
     0
340
F
  0
ENDTAB
  0
TABLE
  2
BLOCK_RECORD
  5
1
100
AcDbSymbolTable
 70
    15
  0
BLOCK_RECORD
  5
18
100
AcDbSymbolTableRecord
100
AcDbBlockTableRecord
  2
*MODEL_SPACE
  0
BLOCK_RECORD
  5
15
100
AcDbSymbolTableRecord
100
AcDbBlockTableRecord
  2
*PAPER_SPACE
  0
BLOCK_RECORD
  5
32
100
AcDbSymbolTableRecord
100
AcDbBlockTableRecord
  2
\U+C678\U+BCBD
  0
BLOCK_RECORD
  5
3A
100
AcDbSymbolTableRecord
100
AcDbBlockTableRecord
  2
\U+BB38
  0
BLOCK_RECORD
  5
69
100
AcDbSymbolTableRecord
100
AcDbBlockTableRecord
  2
\U+BC29
  0
BLOCK_RECORD
  5
81
100
AcDbSymbolTableRecord
100
AcDbBlockTableRecord
  2
SI_\U+AE30\U+D638
  0
BLOCK_RECORD
  5
89
100
AcDbSymbolTableRecord
100
AcDbBlockTableRecord
  2
\U+C5F0\U+C18D_\U+C2DC\U+D2B8__\U+D06C\U+AC8C
  0
BLOCK_RECORD
  5
CB
100
AcDbSymbolTableRecord
100
AcDbBlockTableRecord
  2
\U+C218\U+C815_\U+AD6C\U+C5ED__\U+D06C\U+AC8C
  0
BLOCK_RECORD
  5
DA
100
AcDbSymbolTableRecord
100
AcDbBlockTableRecord
  2
\U+C81C\U+BAA9_\U+BE14\U+B85D__\U+D06C\U+AC8C
  0
BLOCK_RECORD
  5
10F
100
AcDbSymbolTableRecord
100
AcDbBlockTableRecord
  2
\U+C81C\U+BAA9
  0
BLOCK_RECORD
  5
11A
100
AcDbSymbolTableRecord
100
AcDbBlockTableRecord
  2
\U+C81C\U+BAA9_\U+BE14\U+B85D__\U+C791\U+AC8C
  0
BLOCK_RECORD
  5
14F
100
AcDbSymbolTableRecord
100
AcDbBlockTableRecord
  2
\U+C218\U+C815__\U+D06C\U+AC8C
  0
BLOCK_RECORD
  5
15C
100
AcDbSymbolTableRecord
100
AcDbBlockTableRecord
  2
\U+C218\U+C815__\U+C791\U+AC8C
  0
BLOCK_RECORD
  5
169
100
AcDbSymbolTableRecord
100
AcDbBlockTableRecord
  2
\U+BE14\U+B85D_-_\U+CE21\U+BA74_\U+B808\U+C774\U+BE14
  0
BLOCK_RECORD
  5
174
100
AcDbSymbolTableRecord
100
AcDbBlockTableRecord
  2
\U+C139\U+C158_\U+BA38\U+B9AC\U+AE00
  0
BLOCK_RECORD
  5
179
100
AcDbSymbolTableRecord
100
AcDbBlockTableRecord
  2
\U+BE14\U+B85D_-_\U+C0C1\U+B2E8_\U+B808\U+C774\U+BE14
  0
BLOCK_RECORD
  5
184
100
AcDbSymbolTableRecord
100
AcDbBlockTableRecord
  2
\U+C0AC\U+AC01\U+D615
  0
ENDTAB
  0
ENDSEC
  0
SECTION
  2
BLOCKS
  0
BLOCK
  5
19
100
AcDbEntity
  8
0
100
AcDbBlockBegin
  2
*MODEL_SPACE
 70
     0
 10
0.0
 20
0.0
 30
0.0
  3
*MODEL_SPACE
  1

  0
ENDBLK
  5
1A
100
AcDbEntity
  8
0
100
AcDbBlockEnd
  0
BLOCK
  5
16
100
AcDbEntity
 67
     1
  8
0
100
AcDbBlockBegin
  2
*PAPER_SPACE
 70
     0
 10
0.0
 20
0.0
 30
0.0
  3
*PAPER_SPACE
  1

  0
ENDBLK
  5
17
100
AcDbEntity
 67
     1
  8
0
100
AcDbBlockEnd
  0
BLOCK
  5
33
100
AcDbEntity
  8
0
100
AcDbBlockBegin
  2
\U+C678\U+BCBD
 70
     0
 10
0.0
 20
0.0
 30
0.0
  3
\U+C678\U+BCBD
  1

  0
LWPOLYLINE
  5
35
102
{ACAD_REACTORS
330
36
102
}
100
AcDbEntity
  8
\U+AC74\U+BB3C_\U+C678\U+BCBD
  6
CONTINUOUS
 62
     7
100
AcDbPolyline
 90
        6
 70
     1
 10
0.0
 20
1.7
 10
3.0
 20
1.7
 10
3.0
 20
1.6
 10
3.0
 20
1.5
 10
0.0
 20
1.5
 10
0.0
 20
1.6
  0
HATCH
  5
36
100
AcDbEntity
  8
\U+AC74\U+BB3C_\U+C678\U+BCBD
 62
   253
100
AcDbHatch
 10
0.0
 20
0.0
 30
0.0
210
0.0
220
0.0
230
1.0
  2
SOLID
 70
     1
 71
     1
 91
        1
 92
        3
 72
     0
 73
     1
 93
        6
 10
0.0
 20
1.7
 10
2.9999999999999987
 20
1.7
 10
2.9999999999999987
 20
1.6000000000000001
 10
2.9999999999999987
 20
1.5
 10
0.0
 20
1.5
 10
0.0
 20
1.6000000000000001
 97
        2
330
31
330
35
 75
     0
 76
     1
 98
        0
  0
LWPOLYLINE
  5
37
100
AcDbEntity
  8
\U+AC74\U+BB3C_\U+C678\U+BCBD
  6
CONTINUOUS
 62
     7
100
AcDbPolyline
 90
        4
 70
     0
 10
0.0
 20
1.6
 10
0.0
 20
1.7
 10
3.0
 20
1.7
 10
3.0
 20
1.6
  0
LWPOLYLINE
  5
38
100
AcDbEntity
  8
\U+AC74\U+BB3C_\U+C678\U+BCBD
  6
CONTINUOUS
 62
     7
100
AcDbPolyline
 90
        4
 70
     0
 10
0.0
 20
1.6
 10
0.0
 20
1.5
 10
3.0
 20
1.5
 10
3.0
 20
1.6
  0
ENDBLK
  5
39
100
AcDbEntity
  8
0
100
AcDbBlockEnd
  0
BLOCK
  5
3B
100
AcDbEntity
  8
0
100
AcDbBlockBegin
  2
\U+BB38
 70
     2
 10
0.0
 20
0.0
 30
0.0
  3
\U+BB38
  1

  0
ATTDEF
  5
3C
100
AcDbEntity
  8
0
100
AcDbText
 10
1.5
 20
1.5
 30
0.0
 40
0.2
  1
82.677165354331
100
AcDbAttributeDefinition
  3
\U+BB38 \U+B192\U+C774
  2
VISDOORHEIGHT
 70
     0
  0
ATTDEF
  5
3D
100
AcDbEntity
  8
0
100
AcDbText
 10
1.5
 20
1.5
 30
0.0
 40
0.2
  1
0
100
AcDbAttributeDefinition
  3
\U+CC38\U+C870\U+C120 \U+C624\U+D504\U+C14B
  2
REFLN
 70
     0
  0
ATTDEF
  5
3E
100
AcDbEntity
  8
0
100
AcDbText
 10
1.5
 20
1.5
 30
0.0
 40
0.2
  1
35.433070866142
100
AcDbAttributeDefinition
  3
\U+BB38 \U+B108\U+BE44
  2
SUBTYPE
 70
     0
  0
ATTDEF
  5
3F
100
AcDbEntity
  8
0
100
AcDbText
 10
1.5
 20
1.5
 30
0.0
 40
0.2
  1
1.9685039370079
100
AcDbAttributeDefinition
  3
\U+BB38\U+D2C0 \U+B108\U+BE44
  2
SUBVISDOORFRAMEWIDTH
 70
     0
  0
ATTDEF
  5
40
100
AcDbEntity
  8
0
100
AcDbText
 10
1.5
 20
1.5
 30
0.0
 40
0.2
  1
1.9685039370079
100
AcDbAttributeDefinition
  3
\U+BB38\U+D2C0 \U+AE4A\U+C774
  2
SUBVISDOORFRAMEDEPTH
 70
     0
  0
ATTDEF
  5
41
100
AcDbEntity
  8
0
100
AcDbText
 10
1.5
 20
1.5
 30
0.0
 40
0.2
  1
0.78740157480315
100
AcDbAttributeDefinition
  3
\U+BB38 \U+BC84\U+D300\U+C1E0 \U+B108\U+BE44
  2
SUBVISDOORSTOPWIDTH
 70
     0
  0
ATTDEF
  5
42
100
AcDbEntity
  8
0
100
AcDbText
 10
1.5
 20
1.5
 30
0.0
 40
0.2
  1
1.9685039370079
100
AcDbAttributeDefinition
  3
\U+BB38 \U+BC84\U+D300\U+C1E0 \U+AE4A\U+C774
  2
SUBVISDOORSTOPDEPTH
 70
     0
  0
ATTDEF
  5
43
100
AcDbEntity
  8
0
100
AcDbText
 10
1.5
 20
1.5
 30
0.0
 40
0.2
  1
1.9685039370079
100
AcDbAttributeDefinition
  3
\U+C548\U+CABD \U+BB38\U+C9C0\U+BC29 \U+AE4A\U+C774
  2
SUBVISDOORTHRESDEPTHIN
 70
     0
  0
ATTDEF
  5
44
100
AcDbEntity
  8
0
100
AcDbText
 10
1.5
 20
1.5
 30
0.0
 40
0.2
  1
1.9685039370079
100
AcDbAttributeDefinition
  3
\U+C548\U+CABD \U+BB38\U+C9C0\U+BC29 \U+B108\U+BE44
  2
SUBVISDOORTHRESWIDTHIN
 70
     0
  0
ATTDEF
  5
45
100
AcDbEntity
  8
0
100
AcDbText
 10
1.5
 20
1.5
 30
0.0
 40
0.2
  1
1.9685039370079
100
AcDbAttributeDefinition
  3
\U+BC14\U+AE65\U+CABD \U+BB38\U+C9C0\U+BC29 \U+AE4A\U+C774
  2
SUBVISDOORTHRESDEPTHOUT
 70
     0
  0
ATTDEF
  5
46
100
AcDbEntity
  8
0
100
AcDbText
 10
1.5
 20
1.5
 30
0.0
 40
0.2
  1
1.9685039370079
100
AcDbAttributeDefinition
  3
\U+BC14\U+AE65\U+CABD \U+BB38\U+C9C0\U+BC29 \U+B108\U+BE44
  2
SUBVISDOORTHRESWIDTHOUT
 70
     0
  0
ATTDEF
  5
47
100
AcDbEntity
  8
0
100
AcDbText
 10
1.5
 20
1.5
 30
0.0
 40
0.2
  1
1.9685039370079
100
AcDbAttributeDefinition
  3
\U+BB38\U+C9DD \U+B450\U+AED8
  2
SUBVISDOORPANELTHICKNESS
 70
     0
  0
ATTDEF
  5
48
100
AcDbEntity
  8
0
100
AcDbText
 10
1.5
 20
1.5
 30
0.0
 40
0.2
  1
17.716535433071
100
AcDbAttributeDefinition
  3
\U+BB38\U+C9DD \U+B108\U+BE44
  2
VISDOORLEAF
 70
     0
  0
ATTDEF
  5
49
100
AcDbEntity
  8
0
100
AcDbText
 10
1.5
 20
1.5
 30
0.0
 40
0.2
  1
41.338582677165
100
AcDbAttributeDefinition
  3
\U+BB38 \U+C2A4\U+D504\U+B9C1 \U+B192\U+C774
  2
VISDOORSPRING
 70
     0
  0
ATTDEF
  5
4A
100
AcDbEntity
  8
0
100
AcDbText
 10
1.5
 20
1.5
 30
0.0
 40
0.2
  1
3.9370078740157
100
AcDbAttributeDefinition
  3
\U+BCBD\U+BA74\U+C5D0 \U+B300\U+D55C \U+BB38 \U+C624\U+D504\U+C14B
  2
VISDOORALONGWALLOFFSET
 70
     0
  0
ATTDEF
  5
4B
100
AcDbEntity
  8
0
100
AcDbText
 10
1.5
 20
1.5
 30
0.0
 40
0.2
  1
\U+B2E8\U+C77C
100
AcDbAttributeDefinition
  3
\U+BB38 \U+C885\U+B958
  2
SUBSHAPETYPE
 70
     0
  0
ATTDEF
  5
4C
100
AcDbEntity
  8
0
100
AcDbText
 10
1.5
 20
1.5
 30
0.0
 40
0.2
  1
\U+AC00\U+C6B4\U+B370
100
AcDbAttributeDefinition
  3
\U+BCBD \U+C548\U+CABD\U+C5D0 \U+B300\U+D55C \U+BB38 \U+C624\U+D504\U+C14B
  2
VISJUSTIFICATION
 70
     0
  0
ATTDEF
  5
4D
100
AcDbEntity
  8
0
100
AcDbText
 10
1.5
 20
1.5
 30
0.0
 40
0.2
  1
50
100
AcDbAttributeDefinition
  3
\U+BB38 \U+C5F4\U+B9AC\U+B294 \U+C815\U+B3C4
  2
VISDOOROPENPERCENT
 70
     0
  0
ATTDEF
  5
4E
100
AcDbEntity
  8
0
100
AcDbText
 10
1.5
 20
1.5
 30
0.0
 40
0.2
  1
\U+AC74\U+BB3C \U+AD6C\U+C131 \U+C694\U+C18C
100
AcDbAttributeDefinition
  3
\U+C170\U+C774\U+D504 \U+D074\U+B798\U+C2A4
  2
SHAPECLASS
 70
     0
  0
ATTDEF
  5
4F
100
AcDbEntity
  8
0
100
AcDbText
 10
1.5
 20
1.5
 30
0.0
 40
0.2
  1
\U+BB38
100
AcDbAttributeDefinition
  3
\U+C170\U+C774\U+D504 \U+D615\U+C2DD
  2
SHAPETYPE
 70
     0
  0
ATTDEF
  5
50
100
AcDbEntity
  8
0
100
AcDbText
 10
1.5
 20
1.5
 30
0.0
 40
0.2
  1
0
100
AcDbAttributeDefinition
  3
\U+C18C\U+BC29 \U+B4F1\U+AE09
  2
FIRERATING
 70
     0
  0
ATTDEF
  5
51
100
AcDbEntity
  8
0
100
AcDbText
 10
1.5
 20
1.5
 30
0.0
 40
0.2
  1
0
100
AcDbAttributeDefinition
  3
\U+BB38 \U+BC88\U+D638
  2
DOORNUMBER
 70
     0
  0
ATTDEF
  5
52
100
AcDbEntity
  8
0
100
AcDbText
 10
1.5
 20
1.5
 30
0.0
 40
0.2
  1
0
100
AcDbAttributeDefinition
  3
\U+AE30\U+C900 \U+D45C\U+ACE0
  2
BASEELEVATION
 70
     0
  0
LWPOLYLINE
  5
53
102
{ACAD_REACTORS
330
71
102
}
100
AcDbEntity
  8
\U+AC74\U+BB3C_\U+C678\U+BCBD
  6
CONTINUOUS
 62
     7
100
AcDbPolyline
 90
        4
 70
     1
 10
1.0
 20
1.41992
 10
2.0
 20
1.41992
 10
2.0
 20
1.58008
 10
1.0
 20
1.58008
  0
LINE
  5
54
102
{ACAD_REACTORS
330
71
102
}
100
AcDbEntity
  8
\U+AC74\U+BB3C_\U+C678\U+BCBD
  6
CONTINUOUS
 62
     7
100
AcDbLine
 10
2.0
 20
1.425
 30
0.0
 11
2.0
 21
1.575
 31
0.0
  0
LINE
  5
55
102
{ACAD_REACTORS
330
71
102
}
100
AcDbEntity
  8
\U+AC74\U+BB3C_\U+C678\U+BCBD
  6
CONTINUOUS
 62
     7
100
AcDbLine
 10
2.0
 20
1.575
 30
0.0
 11
1.95
 21
1.575
 31
0.0
  0
LINE
  5
56
102
{ACAD_REACTORS
330
71
102
}
100
AcDbEntity
  8
\U+AC74\U+BB3C_\U+C678\U+BCBD
  6
CONTINUOUS
 62
     7
100
AcDbLine
 10
1.95
 20
1.575
 30
0.0
 11
1.95
 21
1.525
 31
0.0
  0
LINE
  5
57
102
{ACAD_REACTORS
330
71
102
}
100
AcDbEntity
  8
\U+AC74\U+BB3C_\U+C678\U+BCBD
  6
CONTINUOUS
 62
     7
100
AcDbLine
 10
1.95
 20
1.475
 30
0.0
 11
1.95
 21
1.425
 31
0.0
  0
LINE
  5
58
102
{ACAD_REACTORS
330
71
102
}
100
AcDbEntity
  8
\U+AC74\U+BB3C_\U+C678\U+BCBD
  6
CONTINUOUS
 62
     7
100
AcDbLine
 10
1.95
 20
1.425
 30
0.0
 11
2.0
 21
1.425
 31
0.0
  0
LINE
  5
59
102
{ACAD_REACTORS
330
71
102
}
100
AcDbEntity
  8
\U+AC74\U+BB3C_\U+C678\U+BCBD
  6
CONTINUOUS
 62
     7
100
AcDbLine
 10
1.0
 20
1.425
 30
0.0
 11
1.0
 21
1.575
 31
0.0
  0
LINE
  5
5A
102
{ACAD_REACTORS
330
71
102
}
100
AcDbEntity
  8
\U+AC74\U+BB3C_\U+C678\U+BCBD
  6
CONTINUOUS
 62
     7
100
AcDbLine
 10
1.0
 20
1.575
 30
0.0
 11
1.05
 21
1.575
 31
0.0
  0
LINE
  5
5B
102
{ACAD_REACTORS
330
71
102
}
100
AcDbEntity
  8
\U+AC74\U+BB3C_\U+C678\U+BCBD
  6
CONTINUOUS
 62
     7
100
AcDbLine
 10
1.05
 20
1.575
 30
0.0
 11
1.05
 21
1.525
 31
0.0
  0
LINE
  5
5C
102
{ACAD_REACTORS
330
71
102
}
100
AcDbEntity
  8
\U+AC74\U+BB3C_\U+C678\U+BCBD
  6
CONTINUOUS
 62
     7
100
AcDbLine
 10
1.05
 20
1.475
 30
0.0
 11
1.05
 21
1.425
 31
0.0
  0
LINE
  5
5D
102
{ACAD_REACTORS
330
71
102
}
100
AcDbEntity
  8
\U+AC74\U+BB3C_\U+C678\U+BCBD
  6
CONTINUOUS
 62
     7
100
AcDbLine
 10
1.05
 20
1.425
 30
0.0
 11
1.0
 21
1.425
 31
0.0
  0
LINE
  5
5E
102
{ACAD_REACTORS
330
71
102
}
100
AcDbEntity
  8
\U+AC74\U+BB3C_\U+C678\U+BCBD
  6
CONTINUOUS
 62
     7
100
AcDbLine
 10
1.95
 20
1.525
 30
0.0
 11
1.93
 21
1.525
 31
0.0
  0
LINE
  5
5F
102
{ACAD_REACTORS
330
71
102
}
100
AcDbEntity
  8
\U+AC74\U+BB3C_\U+C678\U+BCBD
  6
CONTINUOUS
 62
     7
100
AcDbLine
 10
1.93
 20
1.525
 30
0.0
 11
1.93
 21
1.475
 31
0.0
  0
LINE
  5
60
102
{ACAD_REACTORS
330
71
102
}
100
AcDbEntity
  8
\U+AC74\U+BB3C_\U+C678\U+BCBD
  6
CONTINUOUS
 62
     7
100
AcDbLine
 10
1.93
 20
1.475
 30
0.0
 11
1.95
 21
1.475
 31
0.0
  0
LINE
  5
61
102
{ACAD_REACTORS
330
71
102
}
100
AcDbEntity
  8
\U+AC74\U+BB3C_\U+C678\U+BCBD
  6
CONTINUOUS
 62
     7
100
AcDbLine
 10
1.05
 20
1.525
 30
0.0
 11
1.07
 21
1.525
 31
0.0
  0
LINE
  5
62
102
{ACAD_REACTORS
330
71
102
}
100
AcDbEntity
  8
\U+AC74\U+BB3C_\U+C678\U+BCBD
  6
CONTINUOUS
 62
     7
100
AcDbLine
 10
1.07
 20
1.525
 30
0.0
 11
1.07
 21
1.475
 31
0.0
  0
LINE
  5
63
102
{ACAD_REACTORS
330
71
102
}
100
AcDbEntity
  8
\U+AC74\U+BB3C_\U+C678\U+BCBD
  6
CONTINUOUS
 62
     7
100
AcDbLine
 10
1.07
 20
1.475
 30
0.0
 11
1.05
 21
1.475
 31
0.0
  0
LINE
  5
64
100
AcDbEntity
  8
\U+AC74\U+BB3C_\U+C678\U+BCBD
  6
CONTINUOUS
 62
     7
100
AcDbLine
 10
2.0
 20
1.425
 30
0.0
 11
2.0
 21
1.575
 31
0.0
  0
LINE
  5
65
100
AcDbEntity
  8
\U+AC74\U+BB3C_\U+C678\U+BCBD
  6
CONTINUOUS
 62
     7
100
AcDbLine
 10
1.0
 20
1.425
 30
0.0
 11
1.0
 21
1.575
 31
0.0
  0
ARC
  5
66
100
AcDbEntity
  8
\U+AC74\U+BB3C_\U+C678\U+BCBD
  6
CONTINUOUS
 62
     7
100
AcDbCircle
 10
1.95
 20
1.575
 30
0.0
 40
0.9
100
AcDbArc
 50
90.0
 51
180.0
  0
LWPOLYLINE
  5
67
102
{ACAD_REACTORS
330
71
102
}
100
AcDbEntity
  8
\U+AC74\U+BB3C_\U+C678\U+BCBD
  6
CONTINUOUS
 62
     7
100
AcDbPolyline
 90
        4
 70
     1
 10
1.9
 20
2.475
 10
1.9
 20
1.575
 10
1.95
 20
1.575
 10
1.95
 20
2.475
  0
ENDBLK
  5
68
100
AcDbEntity
  8
0
100
AcDbBlockEnd
  0
BLOCK
  5
6A
100
AcDbEntity
  8
0
100
AcDbBlockBegin
  2
\U+BC29
 70
     2
 10
0.0
 20
0.0
 30
0.0
  3
\U+BC29
  1

  0
ATTDEF
  5
6B
100
AcDbEntity
  8
0
100
AcDbText
 10
2.0
 20
2.0
 30
0.0
 40
0.2
  1
118.11023622047
100
AcDbAttributeDefinition
  3
\U+B108\U+BE44
  2
WIDTH
 70
     0
  0
ATTDEF
  5
6C
100
AcDbEntity
  8
0
100
AcDbText
 10
2.0
 20
2.0
 30
0.0
 40
0.2
  1
98.425196850394
100
AcDbAttributeDefinition
  3
\U+AE38\U+C774
  2
LENGTH
 70
     0
  0
ATTDEF
  5
6D
100
AcDbEntity
  8
0
100
AcDbText
 10
2.0
 20
2.0
 30
0.0
 40
0.2
  1
\U+AC74\U+BB3C \U+AD6C\U+C131 \U+C694\U+C18C
100
AcDbAttributeDefinition
  3
\U+C170\U+C774\U+D504 \U+D074\U+B798\U+C2A4
  2
SHAPECLASS
 70
     0
  0
ATTDEF
  5
6E
100
AcDbEntity
  8
0
100
AcDbText
 10
2.0
 20
2.0
 30
0.0
 40
0.2
  1
\U+BC29
100
AcDbAttributeDefinition
  3
\U+C170\U+C774\U+D504 \U+D615\U+C2DD
  2
SHAPETYPE
 70
     0
  0
ATTDEF
  5
6F
100
AcDbEntity
  8
0
100
AcDbText
 10
2.0
 20
2.0
 30
0.0
 40
0.2
  1

100
AcDbAttributeDefinition
  3
\U+D558\U+C704 \U+C170\U+C774\U+D504 \U+D615\U+C2DD
  2
SUBSHAPETYPE
 70
     0
  0
LWPOLYLINE
  5
70
102
{ACAD_REACTORS
330
71
102
}
100
AcDbEntity
  8
\U+AC74\U+BB3C_\U+C678\U+BCBD
  6
CONTINUOUS
 62
     7
100
AcDbPolyline
 90
        4
 70
     1
 10
0.35
 20
3.4
 10
3.65
 20
3.4
 10
3.5
 20
3.25
 10
0.5
 20
3.25
  0
HATCH
  5
71
100
AcDbEntity
  8
\U+AC74\U+BB3C_\U+C678\U+BCBD
 62
   253
100
AcDbHatch
 10
0.0
 20
0.0
 30
0.0
210
0.0
220
0.0
230
1.0
  2
SOLID
 70
     1
 71
     1
 91
        1
 92
        3
 72
     0
 73
     1
 93
        4
 10
0.3500000000000069
 20
3.3999999999999999
 10
3.6499999999999972
 20
3.3999999999999999
 10
3.5000000000000004
 20
3.25
 10
0.5000000000000064
 20
3.25
 97
       19
330
53
330
54
330
55
330
56
330
57
330
58
330
59
330
5A
330
5B
330
5C
330
5D
330
5E
330
5F
330
60
330
61
330
62
330
63
330
67
330
70
 75
     0
 76
     1
 98
        0
  0
LINE
  5
72
100
AcDbEntity
  8
\U+AC74\U+BB3C_\U+C678\U+BCBD
  6
CONTINUOUS
 62
     7
100
AcDbLine
 10
0.35
 20
3.4
 30
0.0
 11
3.65
 21
3.4
 31
0.0
  0
LINE
  5
73
100
AcDbEntity
  8
\U+AC74\U+BB3C_\U+C678\U+BCBD
  6
CONTINUOUS
 62
     7
100
AcDbLine
 10
0.5
 20
3.25
 30
0.0
 11
3.5
 21
3.25
 31
0.0
  0
LWPOLYLINE
  5
74
102
{ACAD_REACTORS
330
75
102
}
100
AcDbEntity
  8
\U+AC74\U+BB3C_\U+C678\U+BCBD
  6
CONTINUOUS
 62
     7
100
AcDbPolyline
 90
        4
 70
     1
 10
3.65
 20
3.4
 10
3.65
 20
0.6
 10
3.5
 20
0.75
 10
3.5
 20
3.25
  0
HATCH
  5
75
100
AcDbEntity
  8
\U+AC74\U+BB3C_\U+C678\U+BCBD
 62
   253
100
AcDbHatch
 10
0.0
 20
0.0
 30
0.0
210
0.0
220
0.0
230
1.0
  2
SOLID
 70
     1
 71
     1
 91
        1
 92
        3
 72
     0
 73
     1
 93
        4
 10
3.6499999999999995
 20
3.399999999999999
 10
3.6499999999999995
 20
0.6
 10
3.4999999999999996
 20
0.7499999999999988
 10
3.4999999999999996
 20
3.2499999999999996
 97
        1
330
74
 75
     0
 76
     1
 98
        0
  0
LINE
  5
76
100
AcDbEntity
  8
\U+AC74\U+BB3C_\U+C678\U+BCBD
  6
CONTINUOUS
 62
     7
100
AcDbLine
 10
3.65
 20
3.4
 30
0.0
 11
3.65
 21
0.6
 31
0.0
  0
LINE
  5
77
100
AcDbEntity
  8
\U+AC74\U+BB3C_\U+C678\U+BCBD
  6
CONTINUOUS
 62
     7
100
AcDbLine
 10
3.5
 20
3.25
 30
0.0
 11
3.5
 21
0.75
 31
0.0
  0
LWPOLYLINE
  5
78
102
{ACAD_REACTORS
330
79
102
}
100
AcDbEntity
  8
\U+AC74\U+BB3C_\U+C678\U+BCBD
  6
CONTINUOUS
 62
     7
100
AcDbPolyline
 90
        4
 70
     1
 10
3.65
 20
0.6
 10
0.35
 20
0.6
 10
0.5
 20
0.75
 10
3.5
 20
0.75
  0
HATCH
  5
79
100
AcDbEntity
  8
\U+AC74\U+BB3C_\U+C678\U+BCBD
 62
   253
100
AcDbHatch
 10
0.0
 20
0.0
 30
0.0
210
0.0
220
0.0
230
1.0
  2
SOLID
 70
     1
 71
     1
 91
        1
 92
        3
 72
     0
 73
     1
 93
        4
 10
3.6499999999999986
 20
0.5999999999999908
 10
0.3499999999999988
 20
0.5999999999999908
 10
0.5000000000000007
 20
0.7499999999999908
 10
3.4999999999999996
 20
0.7499999999999908
 97
        1
330
78
 75
     0
 76
     1
 98
        0
  0
LINE
  5
7A
100
AcDbEntity
  8
\U+AC74\U+BB3C_\U+C678\U+BCBD
  6
CONTINUOUS
 62
     7
100
AcDbLine
 10
3.65
 20
0.6
 30
0.0
 11
0.35
 21
0.6
 31
0.0
  0
LINE
  5
7B
100
AcDbEntity
  8
\U+AC74\U+BB3C_\U+C678\U+BCBD
  6
CONTINUOUS
 62
     7
100
AcDbLine
 10
3.5
 20
0.75
 30
0.0
 11
0.5
 21
0.75
 31
0.0
  0
LWPOLYLINE
  5
7C
102
{ACAD_REACTORS
330
7D
102
}
100
AcDbEntity
  8
\U+AC74\U+BB3C_\U+C678\U+BCBD
  6
CONTINUOUS
 62
     7
100
AcDbPolyline
 90
        4
 70
     1
 10
0.35
 20
0.6
 10
0.35
 20
3.4
 10
0.5
 20
3.25
 10
0.5
 20
0.75
  0
HATCH
  5
7D
100
AcDbEntity
  8
\U+AC74\U+BB3C_\U+C678\U+BCBD
 62
   253
100
AcDbHatch
 10
0.0
 20
0.0
 30
0.0
210
0.0
220
0.0
230
1.0
  2
SOLID
 70
     1
 71
     1
 91
        1
 92
        3
 72
     0
 73
     1
 93
        4
 10
0.3500000000000034
 20
0.599999999999982
 10
0.3500000000000034
 20
3.3999999999999972
 10
0.5000000000000034
 20
3.25
 10
0.5000000000000034
 20
0.7499999999999848
 97
        1
330
7C
 75
     0
 76
     1
 98
        0
  0
LINE
  5
7E
100
AcDbEntity
  8
\U+AC74\U+BB3C_\U+C678\U+BCBD
  6
CONTINUOUS
 62
     7
100
AcDbLine
 10
0.35
 20
0.6
 30
0.0
 11
0.35
 21
3.4
 31
0.0
  0
LINE
  5
7F
100
AcDbEntity
  8
\U+AC74\U+BB3C_\U+C678\U+BCBD
  6
CONTINUOUS
 62
     7
100
AcDbLine
 10
0.5
 20
0.75
 30
0.0
 11
0.5
 21
3.25
 31
0.0
  0
ENDBLK
  5
80
100
AcDbEntity
  8
0
100
AcDbBlockEnd
  0
BLOCK
  5
82
100
AcDbEntity
  8
0
100
AcDbBlockBegin
  2
SI_\U+AE30\U+D638
 70
     2
 10
0.0
 20
0.0
 30
0.0
  3
SI_\U+AE30\U+D638
  1

  0
ATTDEF
  5
83
100
AcDbEntity
  8
0
100
AcDbText
 10
0.05
 20
0.0525
 30
0.0
 40
0.2
  1
0
100
AcDbAttributeDefinition
  3
\U+BBF8\U+D130\U+BC95
  2
TEXT
 70
     0
  0
LWPOLYLINE
  5
84
102
{ACAD_REACTORS
330
85
102
}
100
AcDbEntity
  8
0
  6
CONTINUOUS
 62
     7
100
AcDbPolyline
 90
        4
 70
     1
 10
0.055625
 20
0.045
 10
0.0575
 20
0.045
 10
0.0575
 20
0.06
 10
0.055625
 20
0.06
  0
HATCH
  5
85
100
AcDbEntity
  8
0
 62
     7
100
AcDbHatch
 10
0.0
 20
0.0
 30
0.0
210
0.0
220
0.0
230
1.0
  2
SOLID
 70
     1
 71
     1
 91
        3
 92
        3
 72
     0
 73
     1
 93
        4
 10
0.0556250000001257
 20
0.045
 10
0.0575000000001257
 20
0.045
 10
0.0575000000001257
 20
0.06
 10
0.0556250000001257
 20
0.06
 97
        1
330
84
 92
        3
 72
     1
 73
     1
 93
       28
 10
0.0500000000001257
 20
0.0534375
 42
0.0
 10
0.0462500000001256
 20
0.0534375
 42
-0.4142135623731038
 10
0.0443750000001256
 20
0.0553125
 42
0.0
 10
0.0443750000001256
 20
0.05625
 42
-0.4142135623731039
 10
0.0462500000001257
 20
0.058125
 42
0.0
 10
0.0500000000001257
 20
0.058125
 42
-0.4142135623731001
 10
0.0518750000001256
 20
0.05625
 42
0.0
 10
0.0518750000001256
 20
0.0553125
 42
0.0
 10
0.0537500000001256
 20
0.0553125
 42
0.0
 10
0.0537500000001257
 20
0.05625
 42
0.4142231524190801
 10
0.0500000000001257
 20
0.06
 42
0.0
 10
0.0462500000001257
 20
0.06
 42
0.4142231524190841
 10
0.0425000000001257
 20
0.05625
 42
0.0
 10
0.0425000000001257
 20
0.0553125
 42
0.4142231524190841
 10
0.0462500000001257
 20
0.0515625
 42
0.0
 10
0.0500000000001257
 20
0.0515625
 42
-0.4142135623731001
 10
0.0518750000001256
 20
0.0496875
 42
0.0
 10
0.0518750000001256
 20
0.04875
 42
-0.4142135623731001
 10
0.0500000000001257
 20
0.046875
 42
0.0
 10
0.0462500000001256
 20
0.046875
 42
-0.4142135623731039
 10
0.0443750000001257
 20
0.04875
 42
0.0
 10
0.0443750000001257
 20
0.0496875
 42
0.0
 10
0.0425000000001257
 20
0.0496875
 42
0.0
 10
0.0425000000001257
 20
0.04875
 42
0.4142231524190841
 10
0.0462500000001257
 20
0.045
 42
0.0
 10
0.0500000000001257
 20
0.045
 42
0.41422315241908
 10
0.0537500000001256
 20
0.04875
 42
0.0
 10
0.0537500000001257
 20
0.0496875
 42
0.41422315241908
 97
        1
330
86
 92
        0
 93
        0
 97
        0
 75
     0
 76
     1
 98
        0
  0
LWPOLYLINE
  5
86
102
{ACAD_REACTORS
330
85
102
}
100
AcDbEntity
  8
0
  6
CONTINUOUS
 62
     7
100
AcDbPolyline
 90
       28
 70
     1
 10
0.05
 20
0.053438
 10
0.04625
 20
0.053437
 42
-0.414214
 10
0.044375
 20
0.055313
 10
0.044375
 20
0.05625
 42
-0.414214
 10
0.04625
 20
0.058125
 10
0.05
 20
0.058125
 42
-0.414214
 10
0.051875
 20
0.05625
 10
0.051875
 20
0.055313
 10
0.05375
 20
0.055313
 10
0.05375
 20
0.05625
 42
0.414223
 10
0.05
 20
0.06
 10
0.04625
 20
0.06
 42
0.414223
 10
0.0425
 20
0.05625
 10
0.0425
 20
0.055313
 42
0.414223
 10
0.04625
 20
0.051563
 10
0.05
 20
0.051563
 42
-0.414214
 10
0.051875
 20
0.049688
 10
0.051875
 20
0.04875
 42
-0.414214
 10
0.05
 20
0.046875
 10
0.04625
 20
0.046875
 42
-0.414214
 10
0.044375
 20
0.04875
 10
0.044375
 20
0.049688
 10
0.0425
 20
0.049688
 10
0.0425
 20
0.04875
 42
0.414223
 10
0.04625
 20
0.045
 10
0.05
 20
0.045
 42
0.414223
 10
0.05375
 20
0.04875
 10
0.05375
 20
0.049688
 42
0.414223
  0
MTEXT
  5
87
100
AcDbEntity
  8
0
100
AcDbMText
 10
0.05
 20
0.041999
 30
0.0
 40
0.2
 41
0.015
 71
     5
 72
     5
  1

  0
ENDBLK
  5
88
100
AcDbEntity
  8
0
100
AcDbBlockEnd
  0
BLOCK
  5
8A
100
AcDbEntity
  8
0
100
AcDbBlockBegin
  2
\U+C5F0\U+C18D_\U+C2DC\U+D2B8__\U+D06C\U+AC8C
 70
     2
 10
0.0
 20
0.0
 30
0.0
  3
\U+C5F0\U+C18D_\U+C2DC\U+D2B8__\U+D06C\U+AC8C
  1

  0
ATTDEF
  5
8B
100
AcDbEntity
  8
0
100
AcDbText
 10
0.2
 20
0.0375
 30
0.0
 40
0.2
  1
0
100
AcDbAttributeDefinition
  3
/
  2
TEXT
 70
     0
  0
LWPOLYLINE
  5
8C
100
AcDbEntity
  8
0
  6
CONTINUOUS
 62
     7
100
AcDbPolyline
 90
        4
 70
     1
 10
0.0
 20
0.0475
 10
0.065263
 20
0.0475
 10
0.065263
 20
0.0625
 10
0.0
 20
0.0625
  0
LINE
  5
8D
100
AcDbEntity
  8
0
  6
CONTINUOUS
 62
     7
100
AcDbLine
 10
0.015
 20
0.0475
 30
0.0
 11
0.0
 21
0.0475
 31
0.0
  0
LINE
  5
8E
100
AcDbEntity
  8
0
  6
CONTINUOUS
 62
     7
100
AcDbLine
 10
0.0
 20
0.0475
 30
0.0
 11
0.0
 21
0.0425
 31
0.0
  0
LINE
  5
8F
100
AcDbEntity
  8
0
  6
CONTINUOUS
 62
     7
100
AcDbLine
 10
0.0
 20
0.0425
 30
0.0
 11
0.015
 21
0.0425
 31
0.0
  0
MTEXT
  5
91
100
AcDbEntity
  8
0
100
AcDbMText
 10
0.014111
 20
0.045
 30
0.0
 40
0.067717
 41
0.015
 71
     4
 72
     5
  1
\C7;\f¸¼Àº °íµñ|b0|i0|;\H0.06771731351316;\M+3C0DB\P\M+3BCBA\P\M+3C0DA
  7
HORIZONTALWHGTXT
  0
LINE
  5
92
100
AcDbEntity
  8
0
  6
CONTINUOUS
 62
     7
100
AcDbLine
 10
0.015
 20
0.0475
 30
0.0
 11
0.065263
 21
0.0475
 31
0.0
  0
LINE
  5
93
100
AcDbEntity
  8
0
  6
CONTINUOUS
 62
     7
100
AcDbLine
 10
0.065263
 20
0.0475
 30
0.0
 11
0.065263
 21
0.0425
 31
0.0
  0
LINE
  5
94
100
AcDbEntity
  8
0
  6
CONTINUOUS
 62
     7
100
AcDbLine
 10
0.065263
 20
0.0425
 30
0.0
 11
0.015
 21
0.0425
 31
0.0
  0
MTEXT
  5
95
100
AcDbEntity
  8
0
100
AcDbMText
 10
0.040132
 20
0.045
 30
0.0
 40
0.067717
 41
0.050263
 71
     5
 72
     5
  1
\C7;\f¸¼Àº °íµñ|b0|i0|;\H0.06771731351316;G\PO\PO\PD\PM\PA\PT\PE
  7
HORIZONTALWHGTXT
  0
LINE
  5
96
100
AcDbEntity
  8
0
  6
CONTINUOUS
 62
     7
100
AcDbLine
 10
0.02
 20
0.0425
 30
0.0
 11
0.0
 21
0.0425
 31
0.0
  0
LINE
  5
97
100
AcDbEntity
  8
0
  6
CONTINUOUS
 62
     7
100
AcDbLine
 10
0.0
 20
0.0425
 30
0.0
 11
0.0
 21
0.0375
 31
0.0
  0
LINE
  5
98
100
AcDbEntity
  8
0
  6
CONTINUOUS
 62
     7
100
AcDbLine
 10
0.0
 20
0.0375
 30
0.0
 11
0.02
 21
0.0375
 31
0.0
  0
MTEXT
  5
99
100
AcDbEntity
  8
0
100
AcDbMText
 10
0.014111
 20
0.04
 30
0.0
 40
0.067717
 41
0.02
 71
     4
 72
     5
  1
\C7;\f¸¼Àº °íµñ|b0|i0|;\H0.06771731351316;\M+3B9DF\P\M+3C7E0\P\M+3C0CF
  7
HORIZONTALWHGTXT
  0
LINE
  5
9A
100
AcDbEntity
  8
0
  6
CONTINUOUS
 62
     7
100
AcDbLine
 10
0.06527
 20
0.0505
 30
0.0
 11
0.06527
 21
0.0545
 31
0.0
  0
LINE
  5
9B
100
AcDbEntity
  8
0
  6
CONTINUOUS
 62
     7
100
AcDbLine
 10
0.06527
 20
0.0545
 30
0.0
 11
0.07901
 21
0.0545
 31
0.0
  0
LINE
  5
9C
100
AcDbEntity
  8
0
  6
CONTINUOUS
 62
     7
100
AcDbLine
 10
0.07901
 20
0.0545
 30
0.0
 11
0.07901
 21
0.0505
 31
0.0
  0
MTEXT
  5
9D
100
AcDbEntity
  8
0
100
AcDbMText
 10
0.07214
 20
0.0525
 30
0.0
 40
0.067717
 41
0.018137
 71
     5
 72
     5
  1
\C7;\f¸¼Àº °íµñ|b0|i0|;\H0.06771731351316;\M+3C5A9\P\M+3B1E2
  7
HORIZONTALWHGTXT
  0
LINE
  5
9E
100
AcDbEntity
  8
0
  6
CONTINUOUS
 62
     7
100
AcDbLine
 10
0.07901
 20
0.0505
 30
0.0
 11
0.07901
 21
0.0545
 31
0.0
  0
LINE
  5
9F
100
AcDbEntity
  8
0
  6
CONTINUOUS
 62
     7
100
AcDbLine
 10
0.07901
 20
0.0545
 30
0.0
 11
0.11251
 21
0.0545
 31
0.0
  0
LINE
  5
A0
100
AcDbEntity
  8
0
  6
CONTINUOUS
 62
     7
100
AcDbLine
 10
0.11251
 20
0.0545
 30
0.0
 11
0.11251
 21
0.0505
 31
0.0
  0
MTEXT
  5
A1
100
AcDbEntity
  8
0
100
AcDbMText
 10
0.09576
 20
0.0525
 30
0.0
 40
0.067717
 41
0.0335
 71
     5
 72
     5
  1
\C7;\f¸¼Àº °íµñ|b0|i0|;\H0.06771731351316;F\PS\PC\PM\P \P\M+3B9F8\P\M+3C8A3
  7
HORIZONTALWHGTXT
  0
LINE
  5
A2
100
AcDbEntity
  8
0
  6
CONTINUOUS
 62
     7
100
AcDbLine
 10
0.11251
 20
0.0505
 30
0.0
 11
0.11251
 21
0.0545
 31
0.0
  0
LINE
  5
A3
100
AcDbEntity
  8
0
  6
CONTINUOUS
 62
     7
100
AcDbLine
 10
0.11251
 20
0.0545
 30
0.0
 11
0.18601
 21
0.0545
 31
0.0
  0
LINE
  5
A4
100
AcDbEntity
  8
0
  6
CONTINUOUS
 62
     7
100
AcDbLine
 10
0.18601
 20
0.0545
 30
0.0
 11
0.18601
 21
0.0505
 31
0.0
  0
MTEXT
  5
A5
100
AcDbEntity
  8
0
100
AcDbMText
 10
0.14926
 20
0.0525
 30
0.0
 40
0.067717
 41
0.0735
 71
     5
 72
     5
  1
\C7;\f¸¼Àº °íµñ|b0|i0|;\H0.06771731351316;D\PW\PG\P \P\M+3B9F8\P\M+3C8A3
  7
HORIZONTALWHGTXT
  0
LINE
  5
A6
100
AcDbEntity
  8
0
  6
CONTINUOUS
 62
     7
100
AcDbLine
 10
0.186
 20
0.0505
 30
0.0
 11
0.186
 21
0.0545
 31
0.0
  0
LINE
  5
A7
100
AcDbEntity
  8
0
  6
CONTINUOUS
 62
     7
100
AcDbLine
 10
0.186
 20
0.0545
 30
0.0
 11
0.2
 21
0.0545
 31
0.0
  0
LINE
  5
A8
100
AcDbEntity
  8
0
  6
CONTINUOUS
 62
     7
100
AcDbLine
 10
0.2
 20
0.0545
 30
0.0
 11
0.2
 21
0.0505
 31
0.0
  0
MTEXT
  5
A9
100
AcDbEntity
  8
0
100
AcDbMText
 10
0.193
 20
0.0525
 30
0.0
 40
0.067717
 41
0.014
 71
     5
 72
     5
  1
\C7;\f¸¼Àº °íµñ|b0|i0|;\H0.06771731351316;\M+3BCF6\P\M+3C1A4
  7
HORIZONTALWHGTXT
  0
LINE
  5
AA
100
AcDbEntity
  8
0
  6
CONTINUOUS
 62
     7
100
AcDbLine
 10
0.06527
 20
0.0505
 30
0.0
 11
0.06527
 21
0.0425
 31
0.0
  0
LINE
  5
AB
100
AcDbEntity
  8
0
  6
CONTINUOUS
 62
     7
100
AcDbLine
 10
0.06527
 20
0.0425
 30
0.0
 11
0.07901
 21
0.0425
 31
0.0
  0
LINE
  5
AC
100
AcDbEntity
  8
0
  6
CONTINUOUS
 62
     7
100
AcDbLine
 10
0.07901
 20
0.0425
 30
0.0
 11
0.07901
 21
0.0505
 31
0.0
  0
LINE
  5
AD
100
AcDbEntity
  8
0
  6
CONTINUOUS
 62
     7
100
AcDbLine
 10
0.07901
 20
0.0505
 30
0.0
 11
0.07901
 21
0.0425
 31
0.0
  0
LINE
  5
AE
100
AcDbEntity
  8
0
  6
CONTINUOUS
 62
     7
100
AcDbLine
 10
0.07901
 20
0.0425
 30
0.0
 11
0.11251
 21
0.0425
 31
0.0
  0
LINE
  5
AF
100
AcDbEntity
  8
0
  6
CONTINUOUS
 62
     7
100
AcDbLine
 10
0.11251
 20
0.0425
 30
0.0
 11
0.11251
 21
0.0505
 31
0.0
  0
LINE
  5
B0
100
AcDbEntity
  8
0
  6
CONTINUOUS
 62
     7
100
AcDbLine
 10
0.11251
 20
0.0505
 30
0.0
 11
0.11251
 21
0.0425
 31
0.0
  0
LINE
  5
B1
100
AcDbEntity
  8
0
  6
CONTINUOUS
 62
     7
100
AcDbLine
 10
0.11251
 20
0.0425
 30
0.0
 11
0.18601
 21
0.0425
 31
0.0
  0
LINE
  5
B2
100
AcDbEntity
  8
0
  6
CONTINUOUS
 62
     7
100
AcDbLine
 10
0.18601
 20
0.0425
 30
0.0
 11
0.18601
 21
0.0505
 31
0.0
  0
LINE
  5
B3
100
AcDbEntity
  8
0
  6
CONTINUOUS
 62
     7
100
AcDbLine
 10
0.186
 20
0.0505
 30
0.0
 11
0.186
 21
0.0425
 31
0.0
  0
LINE
  5
B4
100
AcDbEntity
  8
0
  6
CONTINUOUS
 62
     7
100
AcDbLine
 10
0.186
 20
0.0425
 30
0.0
 11
0.2
 21
0.0425
 31
0.0
  0
LINE
  5
B5
100
AcDbEntity
  8
0
  6
CONTINUOUS
 62
     7
100
AcDbLine
 10
0.2
 20
0.0425
 30
0.0
 11
0.2
 21
0.0505
 31
0.0
  0
LINE
  5
B6
100
AcDbEntity
  8
0
  6
CONTINUOUS
 62
     7
100
AcDbLine
 10
0.020005
 20
0.0425
 30
0.0
 11
0.065265
 21
0.0425
 31
0.0
  0
LINE
  5
B7
100
AcDbEntity
  8
0
  6
CONTINUOUS
 62
     7
100
AcDbLine
 10
0.065265
 20
0.0425
 30
0.0
 11
0.065265
 21
0.0375
 31
0.0
  0
LINE
  5
B8
100
AcDbEntity
  8
0
  6
CONTINUOUS
 62
     7
100
AcDbLine
 10
0.065265
 20
0.0375
 30
0.0
 11
0.020005
 21
0.0375
 31
0.0
  0
LINE
  5
B9
100
AcDbEntity
  8
0
  6
CONTINUOUS
 62
     7
100
AcDbLine
 10
0.0825
 20
0.0425
 30
0.0
 11
0.06526
 21
0.0425
 31
0.0
  0
LINE
  5
BA
100
AcDbEntity
  8
0
  6
CONTINUOUS
 62
     7
100
AcDbLine
 10
0.06526
 20
0.0425
 30
0.0
 11
0.06526
 21
0.0375
 31
0.0
  0
LINE
  5
BB
100
AcDbEntity
  8
0
  6
CONTINUOUS
 62
     7
100
AcDbLine
 10
0.06526
 20
0.0375
 30
0.0
 11
0.0825
 21
0.0375
 31
0.0
  0
MTEXT
  5
BC
100
AcDbEntity
  8
0
100
AcDbMText
 10
0.079371
 20
0.04
 30
0.0
 40
0.067717
 41
0.01724
 71
     4
 72
     5
  1
\C7;\f¸¼Àº °íµñ|b0|i0|;\H0.06771731351316;\M+3B9E8\P\M+3C0B2
  7
HORIZONTALWHGTXT
  0
LINE
  5
BD
100
AcDbEntity
  8
\U+AC74\U+BB3C_\U+C678\U+BCBD
  6
CONTINUOUS
100
AcDbLine
 10
0.08249
 20
0.0375
 30
0.0
 11
0.09895
 21
0.0375
 31
0.0
  0
LINE
  5
BE
100
AcDbEntity
  8
\U+AC74\U+BB3C_\U+C678\U+BCBD
  6
CONTINUOUS
100
AcDbLine
 10
0.09895
 20
0.0375
 30
0.0
 11
0.09895
 21
0.0425
 31
0.0
  0
LINE
  5
BF
100
AcDbEntity
  8
\U+AC74\U+BB3C_\U+C678\U+BCBD
  6
CONTINUOUS
100
AcDbLine
 10
0.09895
 20
0.0425
 30
0.0
 11
0.08249
 21
0.0425
 31
0.0
  0
MTEXT
  5
C0
100
AcDbEntity
  8
\U+AC74\U+BB3C_\U+C678\U+BCBD
100
AcDbMText
 10
0.09072
 20
0.04
 30
0.0
 40
0.067717
 41
0.01646
 71
     5
 72
     5
  1
\C7;\f¸¼Àº °íµñ|b0|i0|;\H0.06771731351316;1\P:\P1
  7
HORIZONTALWHGTXT
  0
LWPOLYLINE
  5
C1
100
AcDbEntity
  8
0
  6
CONTINUOUS
 62
     7
100
AcDbPolyline
 90
        4
 70
     1
 10
0.098947
 20
0.0375
 10
0.153684
 20
0.0375
 10
0.153684
 20
0.0425
 10
0.098947
 20
0.0425
  0
LINE
  5
C2
100
AcDbEntity
  8
0
  6
CONTINUOUS
 62
     7
100
AcDbLine
 10
0.17249
 20
0.0425
 30
0.0
 11
0.15367
 21
0.0425
 31
0.0
  0
LINE
  5
C3
100
AcDbEntity
  8
0
  6
CONTINUOUS
 62
     7
100
AcDbLine
 10
0.15367
 20
0.0425
 30
0.0
 11
0.15367
 21
0.0375
 31
0.0
  0
LINE
  5
C4
100
AcDbEntity
  8
0
  6
CONTINUOUS
 62
     7
100
AcDbLine
 10
0.15367
 20
0.0375
 30
0.0
 11
0.17249
 21
0.0375
 31
0.0
  0
MTEXT
  5
C5
100
AcDbEntity
  8
0
100
AcDbMText
 10
0.167781
 20
0.04
 30
0.0
 40
0.067717
 41
0.01882
 71
     4
 72
     5
  1
\C7;\f¸¼Àº °íµñ|b0|i0|;\H0.06771731351316;\M+3BDC3\P\M+3C6AE
  7
HORIZONTALWHGTXT
  0
LINE
  5
C6
100
AcDbEntity
  8
0
  6
CONTINUOUS
 62
     7
100
AcDbLine
 10
0.17249
 20
0.0425
 30
0.0
 11
0.19999
 21
0.0425
 31
0.0
  0
LINE
  5
C7
100
AcDbEntity
  8
0
  6
CONTINUOUS
 62
     7
100
AcDbLine
 10
0.19999
 20
0.0425
 30
0.0
 11
0.19999
 21
0.0375
 31
0.0
  0
LINE
  5
C8
100
AcDbEntity
  8
0
  6
CONTINUOUS
 62
     7
100
AcDbLine
 10
0.19999
 20
0.0375
 30
0.0
 11
0.17249
 21
0.0375
 31
0.0
  0
MTEXT
  5
C9
100
AcDbEntity
  8
0
100
AcDbMText
 10
0.18624
 20
0.04
 30
0.0
 40
0.067717
 41
0.0275
 71
     5
 72
     5
  1
\C7;\f¸¼Àº °íµñ|b0|i0|;\H0.06771731351316;1\P \P/\P \P1
  7
HORIZONTALWHGTXT
  0
ENDBLK
  5
CA
100
AcDbEntity
  8
0
100
AcDbBlockEnd
  0
BLOCK
  5
CC
100
AcDbEntity
  8
0
100
AcDbBlockBegin
  2
\U+C218\U+C815_\U+AD6C\U+C5ED__\U+D06C\U+AC8C
 70
     0
 10
0.0
 20
0.0
 30
0.0
  3
\U+C218\U+C815_\U+AD6C\U+C5ED__\U+D06C\U+AC8C
  1

  0
LWPOLYLINE
  5
CD
100
AcDbEntity
  8
0
  6
CONTINUOUS
 62
     7
100
AcDbPolyline
 90
        4
 70
     1
 10
0.01
 20
0.05
 10
0.19
 20
0.05
 10
0.19
 20
0.055
 10
0.01
 20
0.055
  0
MTEXT
  5
CE
100
AcDbEntity
  8
0
100
AcDbMText
 10
0.1
 20
0.0525
 30
0.0
 40
0.067717
 41
0.18
 71
     5
 72
     5
  1
\C7;\f¸¼Àº °íµñ|b0|i0|;\H0.06771731351316;\M+3BCF6\P\M+3C1A4 \P\M+3B3BB\P\M+3BFEB
  7
HORIZONTALWHGTXT
  0
LWPOLYLINE
  5
CF
100
AcDbEntity
  8
0
  6
CONTINUOUS
 62
     7
100
AcDbPolyline
 90
        4
 70
     1
 10
0.01
 20
0.045
 10
0.03
 20
0.045
 10
0.03
 20
0.05
 10
0.01
 20
0.05
  0
MTEXT
  5
D0
100
AcDbEntity
  8
0
100
AcDbMText
 10
0.02
 20
0.0475
 30
0.0
 40
0.067717
 41
0.02
 71
     5
 72
     5
  1
\C7;\f¸¼Àº °íµñ|b0|i0|;\H0.06771731351316;\M+3B1B8\P\M+3BFAA
  7
HORIZONTALWHGTXT
  0
LWPOLYLINE
  5
D1
100
AcDbEntity
  8
0
  6
CONTINUOUS
 62
     7
100
AcDbPolyline
 90
        4
 70
     1
 10
0.03
 20
0.045
 10
0.048
 20
0.045
 10
0.048
 20
0.05
 10
0.03
 20
0.05
  0
MTEXT
  5
D2
100
AcDbEntity
  8
0
100
AcDbMText
 10
0.039
 20
0.0475
 30
0.0
 40
0.067717
 41
0.018
 71
     5
 72
     5
  1
\C7;\f¸¼Àº °íµñ|b0|i0|;\H0.06771731351316;\M+3BCF6\P\M+3C1A4
  7
HORIZONTALWHGTXT
  0
LWPOLYLINE
  5
D3
100
AcDbEntity
  8
0
  6
CONTINUOUS
 62
     7
100
AcDbPolyline
 90
        4
 70
     1
 10
0.048
 20
0.045
 10
0.136
 20
0.045
 10
0.136
 20
0.05
 10
0.048
 20
0.05
  0
MTEXT
  5
D4
100
AcDbEntity
  8
0
100
AcDbMText
 10
0.092
 20
0.0475
 30
0.0
 40
0.067717
 41
0.088
 71
     5
 72
     5
  1
\C7;\f¸¼Àº °íµñ|b0|i0|;\H0.06771731351316;\M+3BCB3\P\M+3B8ED
  7
HORIZONTALWHGTXT
  0
LWPOLYLINE
  5
D5
100
AcDbEntity
  8
0
  6
CONTINUOUS
 62
     7
100
AcDbPolyline
 90
        4
 70
     1
 10
0.136
 20
0.045
 10
0.16
 20
0.045
 10
0.16
 20
0.05
 10
0.136
 20
0.05
  0
MTEXT
  5
D6
100
AcDbEntity
  8
0
100
AcDbMText
 10
0.148
 20
0.0475
 30
0.0
 40
0.067717
 41
0.024
 71
     5
 72
     5
  1
\C7;\f¸¼Àº °íµñ|b0|i0|;\H0.06771731351316;\M+3B3AF\P\M+3C2A5
  7
HORIZONTALWHGTXT
  0
LWPOLYLINE
  5
D7
100
AcDbEntity
  8
0
  6
CONTINUOUS
 62
     7
100
AcDbPolyline
 90
        4
 70
     1
 10
0.16
 20
0.045
 10
0.19
 20
0.045
 10
0.19
 20
0.05
 10
0.16
 20
0.05
  0
MTEXT
  5
D8
100
AcDbEntity
  8
0
100
AcDbMText
 10
0.175
 20
0.0475
 30
0.0
 40
0.067717
 41
0.03
 71
     5
 72
     5
  1
\C7;\f¸¼Àº °íµñ|b0|i0|;\H0.06771731351316;\M+3BDC2\P\M+3C0CE
  7
HORIZONTALWHGTXT
  0
ENDBLK
  5
D9
100
AcDbEntity
  8
0
100
AcDbBlockEnd
  0
BLOCK
  5
DB
100
AcDbEntity
  8
0
100
AcDbBlockBegin
  2
\U+C81C\U+BAA9_\U+BE14\U+B85D__\U+D06C\U+AC8C
 70
     0
 10
0.0
 20
0.0
 30
0.0
  3
\U+C81C\U+BAA9_\U+BE14\U+B85D__\U+D06C\U+AC8C
  1

  0
LWPOLYLINE
  5
DC
100
AcDbEntity
  8
0
  6
CONTINUOUS
 62
     7
100
AcDbPolyline
 90
        4
 70
     1
 10
0.0
 20
0.037
 10
0.065263
 20
0.037
 10
0.065263
 20
0.08
 10
0.0
 20
0.08
  0
LWPOLYLINE
  5
DD
100
AcDbEntity
  8
0
  6
CONTINUOUS
 62
     7
100
AcDbPolyline
 90
        4
 70
     1
 10
0.065263
 20
0.064
 10
0.2
 20
0.064
 10
0.2
 20
0.08
 10
0.065263
 20
0.08
  0
LWPOLYLINE
  5
DE
100
AcDbEntity
  8
0
  6
CONTINUOUS
 62
     7
100
AcDbPolyline
 90
        4
 70
     1
 10
0.065263
 20
0.037
 10
0.2
 20
0.037
 10
0.2
 20
0.064
 10
0.065263
 20
0.064
  0
LWPOLYLINE
  5
DF
100
AcDbEntity
  8
0
  6
CONTINUOUS
 62
     7
100
AcDbPolyline
 90
        4
 70
     1
 10
0.0
 20
0.0285
 10
0.065263
 20
0.0285
 10
0.065263
 20
0.037
 10
0.0
 20
0.037
  0
LWPOLYLINE
  5
E0
100
AcDbEntity
  8
0
  6
CONTINUOUS
 62
     7
100
AcDbPolyline
 90
        4
 70
     1
 10
0.0
 20
0.02
 10
0.065263
 20
0.02
 10
0.065263
 20
0.0285
 10
0.0
 20
0.0285
  0
LINE
  5
E1
100
AcDbEntity
  8
0
  6
CONTINUOUS
 62
     7
100
AcDbLine
 10
0.06528
 20
0.033
 30
0.0
 11
0.06528
 21
0.037
 31
0.0
  0
LINE
  5
E2
100
AcDbEntity
  8
0
  6
CONTINUOUS
 62
     7
100
AcDbLine
 10
0.06528
 20
0.037
 30
0.0
 11
0.08
 21
0.037
 31
0.0
  0
LINE
  5
E3
100
AcDbEntity
  8
0
  6
CONTINUOUS
 62
     7
100
AcDbLine
 10
0.08
 20
0.037
 30
0.0
 11
0.08
 21
0.033
 31
0.0
  0
MTEXT
  5
E4
100
AcDbEntity
  8
0
100
AcDbMText
 10
0.07264
 20
0.035
 30
0.0
 40
0.067717
 41
0.020608
 71
     5
 72
     5
  1
\C7;\f¸¼Àº °íµñ|b0|i0|;\H0.06771731351316;\M+3C5A9\P\M+3B1E2
  7
HORIZONTALWHGTXT
  0
LINE
  5
E5
100
AcDbEntity
  8
0
  6
CONTINUOUS
 62
     7
100
AcDbLine
 10
0.08
 20
0.033
 30
0.0
 11
0.08
 21
0.037
 31
0.0
  0
LINE
  5
E6
100
AcDbEntity
  8
0
  6
CONTINUOUS
 62
     7
100
AcDbLine
 10
0.08
 20
0.037
 30
0.0
 11
0.115
 21
0.037
 31
0.0
  0
LINE
  5
E7
100
AcDbEntity
  8
0
  6
CONTINUOUS
 62
     7
100
AcDbLine
 10
0.115
 20
0.037
 30
0.0
 11
0.115
 21
0.033
 31
0.0
  0
MTEXT
  5
E8
100
AcDbEntity
  8
0
100
AcDbMText
 10
0.0975
 20
0.035
 30
0.0
 40
0.067717
 41
0.035
 71
     5
 72
     5
  1
\C7;\f¸¼Àº °íµñ|b0|i0|;\H0.06771731351316;F\PS\PC\PM\P \P\M+3B9F8\P\M+3C8A3
  7
HORIZONTALWHGTXT
  0
LINE
  5
E9
100
AcDbEntity
  8
0
  6
CONTINUOUS
 62
     7
100
AcDbLine
 10
0.115
 20
0.033
 30
0.0
 11
0.115
 21
0.037
 31
0.0
  0
LINE
  5
EA
100
AcDbEntity
  8
0
  6
CONTINUOUS
 62
     7
100
AcDbLine
 10
0.115
 20
0.037
 30
0.0
 11
0.18
 21
0.037
 31
0.0
  0
LINE
  5
EB
100
AcDbEntity
  8
0
  6
CONTINUOUS
 62
     7
100
AcDbLine
 10
0.18
 20
0.037
 30
0.0
 11
0.18
 21
0.033
 31
0.0
  0
MTEXT
  5
EC
100
AcDbEntity
  8
0
100
AcDbMText
 10
0.1475
 20
0.035
 30
0.0
 40
0.067717
 41
0.065
 71
     5
 72
     5
  1
\C7;\f¸¼Àº °íµñ|b0|i0|;\H0.06771731351316;D\PW\PG\P \P\M+3B9F8\P\M+3C8A3
  7
HORIZONTALWHGTXT
  0
LINE
  5
ED
100
AcDbEntity
  8
0
  6
CONTINUOUS
 62
     7
100
AcDbLine
 10
0.18
 20
0.033
 30
0.0
 11
0.18
 21
0.037
 31
0.0
  0
LINE
  5
EE
100
AcDbEntity
  8
0
  6
CONTINUOUS
 62
     7
100
AcDbLine
 10
0.18
 20
0.037
 30
0.0
 11
0.2
 21
0.037
 31
0.0
  0
LINE
  5
EF
100
AcDbEntity
  8
0
  6
CONTINUOUS
 62
     7
100
AcDbLine
 10
0.2
 20
0.037
 30
0.0
 11
0.2
 21
0.033
 31
0.0
  0
MTEXT
  5
F0
100
AcDbEntity
  8
0
100
AcDbMText
 10
0.19
 20
0.035
 30
0.0
 40
0.067717
 41
0.02
 71
     5
 72
     5
  1
\C7;\f¸¼Àº °íµñ|b0|i0|;\H0.06771731351316;\M+3BCF6\P\M+3C1A4
  7
HORIZONTALWHGTXT
  0
LINE
  5
F1
100
AcDbEntity
  8
0
  6
CONTINUOUS
 62
     7
100
AcDbLine
 10
0.06528
 20
0.033
 30
0.0
 11
0.06528
 21
0.025
 31
0.0
  0
LINE
  5
F2
100
AcDbEntity
  8
0
  6
CONTINUOUS
 62
     7
100
AcDbLine
 10
0.06528
 20
0.025
 30
0.0
 11
0.08
 21
0.025
 31
0.0
  0
LINE
  5
F3
100
AcDbEntity
  8
0
  6
CONTINUOUS
 62
     7
100
AcDbLine
 10
0.08
 20
0.025
 30
0.0
 11
0.08
 21
0.033
 31
0.0
  0
LINE
  5
F4
100
AcDbEntity
  8
0
  6
CONTINUOUS
 62
     7
100
AcDbLine
 10
0.08
 20
0.033
 30
0.0
 11
0.08
 21
0.025
 31
0.0
  0
LINE
  5
F5
100
AcDbEntity
  8
0
  6
CONTINUOUS
 62
     7
100
AcDbLine
 10
0.08
 20
0.025
 30
0.0
 11
0.115
 21
0.025
 31
0.0
  0
LINE
  5
F6
100
AcDbEntity
  8
0
  6
CONTINUOUS
 62
     7
100
AcDbLine
 10
0.115
 20
0.025
 30
0.0
 11
0.115
 21
0.033
 31
0.0
  0
LINE
  5
F7
100
AcDbEntity
  8
0
  6
CONTINUOUS
 62
     7
100
AcDbLine
 10
0.115
 20
0.033
 30
0.0
 11
0.115
 21
0.025
 31
0.0
  0
LINE
  5
F8
100
AcDbEntity
  8
0
  6
CONTINUOUS
 62
     7
100
AcDbLine
 10
0.115
 20
0.025
 30
0.0
 11
0.18
 21
0.025
 31
0.0
  0
LINE
  5
F9
100
AcDbEntity
  8
0
  6
CONTINUOUS
 62
     7
100
AcDbLine
 10
0.18
 20
0.025
 30
0.0
 11
0.18
 21
0.033
 31
0.0
  0
LINE
  5
FA
100
AcDbEntity
  8
0
  6
CONTINUOUS
 62
     7
100
AcDbLine
 10
0.18
 20
0.033
 30
0.0
 11
0.18
 21
0.025
 31
0.0
  0
LINE
  5
FB
100
AcDbEntity
  8
0
  6
CONTINUOUS
 62
     7
100
AcDbLine
 10
0.18
 20
0.025
 30
0.0
 11
0.2
 21
0.025
 31
0.0
  0
LINE
  5
FC
100
AcDbEntity
  8
0
  6
CONTINUOUS
 62
     7
100
AcDbLine
 10
0.2
 20
0.025
 30
0.0
 11
0.2
 21
0.033
 31
0.0
  0
LINE
  5
FD
100
AcDbEntity
  8
0
  6
CONTINUOUS
 62
     7
100
AcDbLine
 10
0.0825
 20
0.025
 30
0.0
 11
0.06526
 21
0.025
 31
0.0
  0
LINE
  5
FE
100
AcDbEntity
  8
0
  6
CONTINUOUS
 62
     7
100
AcDbLine
 10
0.06526
 20
0.025
 30
0.0
 11
0.06526
 21
0.02
 31
0.0
  0
LINE
  5
FF
100
AcDbEntity
  8
0
  6
CONTINUOUS
 62
     7
100
AcDbLine
 10
0.06526
 20
0.02
 30
0.0
 11
0.0825
 21
0.02
 31
0.0
  0
MTEXT
  5
100
100
AcDbEntity
  8
0
100
AcDbMText
 10
0.079371
 20
0.0225
 30
0.0
 40
0.067717
 41
0.01724
 71
     4
 72
     5
  1
\C7;\f¸¼Àº °íµñ|b0|i0|;\H0.06771731351316;\M+3B9E8\P\M+3C0B2
  7
HORIZONTALWHGTXT
  0
LINE
  5
101
100
AcDbEntity
  8
\U+AC74\U+BB3C_\U+C678\U+BCBD
  6
CONTINUOUS
100
AcDbLine
 10
0.0825
 20
0.02
 30
0.0
 11
0.09894
 21
0.02
 31
0.0
  0
LINE
  5
102
100
AcDbEntity
  8
\U+AC74\U+BB3C_\U+C678\U+BCBD
  6
CONTINUOUS
100
AcDbLine
 10
0.09894
 20
0.02
 30
0.0
 11
0.09894
 21
0.025
 31
0.0
  0
LINE
  5
103
100
AcDbEntity
  8
\U+AC74\U+BB3C_\U+C678\U+BCBD
  6
CONTINUOUS
100
AcDbLine
 10
0.09894
 20
0.025
 30
0.0
 11
0.0825
 21
0.025
 31
0.0
  0
MTEXT
  5
104
100
AcDbEntity
  8
\U+AC74\U+BB3C_\U+C678\U+BCBD
100
AcDbMText
 10
0.09072
 20
0.0225
 30
0.0
 40
0.067717
 41
0.01644
 71
     5
 72
     5
  1
\C7;\f¸¼Àº °íµñ|b0|i0|;\H0.06771731351316;1\P:\P1
  7
HORIZONTALWHGTXT
  0
LWPOLYLINE
  5
105
100
AcDbEntity
  8
0
  6
CONTINUOUS
 62
     7
100
AcDbPolyline
 90
        4
 70
     1
 10
0.098947
 20
0.02
 10
0.153684
 20
0.02
 10
0.153684
 20
0.025
 10
0.098947
 20
0.025
  0
LINE
  5
106
100
AcDbEntity
  8
0
  6
CONTINUOUS
 62
     7
100
AcDbLine
 10
0.172
 20
0.025
 30
0.0
 11
0.15368
 21
0.025
 31
0.0
  0
LINE
  5
107
100
AcDbEntity
  8
0
  6
CONTINUOUS
 62
     7
100
AcDbLine
 10
0.15368
 20
0.025
 30
0.0
 11
0.15368
 21
0.02
 31
0.0
  0
LINE
  5
108
100
AcDbEntity
  8
0
  6
CONTINUOUS
 62
     7
100
AcDbLine
 10
0.15368
 20
0.02
 30
0.0
 11
0.172
 21
0.02
 31
0.0
  0
MTEXT
  5
109
100
AcDbEntity
  8
0
100
AcDbMText
 10
0.167791
 20
0.0225
 30
0.0
 40
0.067717
 41
0.01832
 71
     4
 72
     5
  1
\C7;\f¸¼Àº °íµñ|b0|i0|;\H0.06771731351316;\M+3BDC3\P\M+3C6AE
  7
HORIZONTALWHGTXT
  0
LINE
  5
10A
100
AcDbEntity
  8
0
  6
CONTINUOUS
 62
     7
100
AcDbLine
 10
0.172
 20
0.025
 30
0.0
 11
0.2
 21
0.025
 31
0.0
  0
LINE
  5
10B
100
AcDbEntity
  8
0
  6
CONTINUOUS
 62
     7
100
AcDbLine
 10
0.2
 20
0.025
 30
0.0
 11
0.2
 21
0.02
 31
0.0
  0
LINE
  5
10C
100
AcDbEntity
  8
0
  6
CONTINUOUS
 62
     7
100
AcDbLine
 10
0.2
 20
0.02
 30
0.0
 11
0.172
 21
0.02
 31
0.0
  0
MTEXT
  5
10D
100
AcDbEntity
  8
0
100
AcDbMText
 10
0.186
 20
0.0225
 30
0.0
 40
0.067717
 41
0.028
 71
     5
 72
     5
  1
\C7;\f¸¼Àº °íµñ|b0|i0|;\H0.06771731351316;1\P \P/\P \P1
  7
HORIZONTALWHGTXT
  0
ENDBLK
  5
10E
100
AcDbEntity
  8
0
100
AcDbBlockEnd
  0
BLOCK
  5
110
100
AcDbEntity
  8
0
100
AcDbBlockBegin
  2
\U+C81C\U+BAA9
 70
     0
 10
0.0
 20
0.0
 30
0.0
  3
\U+C81C\U+BAA9
  1

  0
LINE
  5
111
100
AcDbEntity
  8
0
  6
CONTINUOUS
 62
     7
100
AcDbLine
 10
0.03
 20
0.047469
 30
0.0
 11
0.03
 21
0.05375
 31
0.0
  0
LINE
  5
112
100
AcDbEntity
  8
0
  6
CONTINUOUS
 62
     7
100
AcDbLine
 10
0.03
 20
0.05375
 30
0.0
 11
0.07
 21
0.05375
 31
0.0
  0
LINE
  5
113
100
AcDbEntity
  8
0
  6
CONTINUOUS
 62
     7
100
AcDbLine
 10
0.07
 20
0.05375
 30
0.0
 11
0.07
 21
0.047469
 31
0.0
  0
MTEXT
  5
114
100
AcDbEntity
  8
0
100
AcDbMText
 10
0.044111
 20
0.05061
 30
0.0
 40
0.067717
 41
0.04
 71
     4
 72
     5
  1
\C7;\f¸¼Àº °íµñ|b0|i0|;\H0.06771731351316;\M+3C1A6\P\M+3B8F1
  7
HORIZONTALWHGTXT
  0
LINE
  5
115
100
AcDbEntity
  8
0
  6
CONTINUOUS
 62
     7
100
AcDbLine
 10
0.03
 20
0.047469
 30
0.0
 11
0.03
 21
0.04625
 31
0.0
  0
LINE
  5
116
100
AcDbEntity
  8
0
  6
CONTINUOUS
 62
     7
100
AcDbLine
 10
0.03
 20
0.04625
 30
0.0
 11
0.07
 21
0.04625
 31
0.0
  0
LINE
  5
117
100
AcDbEntity
  8
0
  6
CONTINUOUS
 62
     7
100
AcDbLine
 10
0.07
 20
0.04625
 30
0.0
 11
0.07
 21
0.047469
 31
0.0
  0
MTEXT
  5
118
100
AcDbEntity
  8
0
100
AcDbMText
 10
0.05
 20
0.044152
 30
0.0
 40
0.2
 41
0.04
 71
     5
 72
     5
  1

  0
ENDBLK
  5
119
100
AcDbEntity
  8
0
100
AcDbBlockEnd
  0
BLOCK
  5
11B
100
AcDbEntity
  8
0
100
AcDbBlockBegin
  2
\U+C81C\U+BAA9_\U+BE14\U+B85D__\U+C791\U+AC8C
 70
     0
 10
0.0
 20
0.0
 30
0.0
  3
\U+C81C\U+BAA9_\U+BE14\U+B85D__\U+C791\U+AC8C
  1

  0
LWPOLYLINE
  5
11C
100
AcDbEntity
  8
0
  6
CONTINUOUS
 62
     7
100
AcDbPolyline
 90
        4
 70
     1
 10
0.02
 20
0.0425
 10
0.071613
 20
0.0425
 10
0.071613
 20
0.0725
 10
0.02
 20
0.0725
  0
LWPOLYLINE
  5
11D
100
AcDbEntity
  8
0
  6
CONTINUOUS
 62
     7
100
AcDbPolyline
 90
        4
 70
     1
 10
0.02
 20
0.035
 10
0.071613
 20
0.035
 10
0.071613
 20
0.0425
 10
0.02
 20
0.0425
  0
LWPOLYLINE
  5
11E
100
AcDbEntity
  8
0
  6
CONTINUOUS
 62
     7
100
AcDbPolyline
 90
        4
 70
     1
 10
0.02
 20
0.0275
 10
0.071613
 20
0.0275
 10
0.071613
 20
0.035
 10
0.02
 20
0.035
  0
LWPOLYLINE
  5
11F
100
AcDbEntity
  8
0
  6
CONTINUOUS
 62
     7
100
AcDbPolyline
 90
        4
 70
     1
 10
0.071613
 20
0.059643
 10
0.18
 20
0.059643
 10
0.18
 20
0.0725
 10
0.071613
 20
0.0725
  0
LWPOLYLINE
  5
120
100
AcDbEntity
  8
0
  6
CONTINUOUS
 62
     7
100
AcDbPolyline
 90
        4
 70
     1
 10
0.071613
 20
0.0425
 10
0.18
 20
0.0425
 10
0.18
 20
0.059643
 10
0.071613
 20
0.059643
  0
LINE
  5
121
100
AcDbEntity
  8
0
  6
CONTINUOUS
 62
     7
100
AcDbLine
 10
0.071608
 20
0.0385
 30
0.0
 11
0.071608
 21
0.0425
 31
0.0
  0
LINE
  5
122
100
AcDbEntity
  8
0
  6
CONTINUOUS
 62
     7
100
AcDbLine
 10
0.071608
 20
0.0425
 30
0.0
 11
0.085
 21
0.0425
 31
0.0
  0
LINE
  5
123
100
AcDbEntity
  8
0
  6
CONTINUOUS
 62
     7
100
AcDbLine
 10
0.085
 20
0.0425
 30
0.0
 11
0.085
 21
0.0385
 31
0.0
  0
MTEXT
  5
124
100
AcDbEntity
  8
0
100
AcDbMText
 10
0.078304
 20
0.0405
 30
0.0
 40
0.067717
 41
0.01741
 71
     5
 72
     5
  1
\C7;\f¸¼Àº °íµñ|b0|i0|;\H0.06771731351316;\M+3C5A9\P\M+3B1E2
  7
HORIZONTALWHGTXT
  0
LINE
  5
125
100
AcDbEntity
  8
0
  6
CONTINUOUS
 62
     7
100
AcDbLine
 10
0.085008
 20
0.0385
 30
0.0
 11
0.085008
 21
0.0425
 31
0.0
  0
LINE
  5
126
100
AcDbEntity
  8
0
  6
CONTINUOUS
 62
     7
100
AcDbLine
 10
0.085008
 20
0.0425
 30
0.0
 11
0.113008
 21
0.0425
 31
0.0
  0
LINE
  5
127
100
AcDbEntity
  8
0
  6
CONTINUOUS
 62
     7
100
AcDbLine
 10
0.113008
 20
0.0425
 30
0.0
 11
0.113008
 21
0.0385
 31
0.0
  0
MTEXT
  5
128
100
AcDbEntity
  8
0
100
AcDbMText
 10
0.099008
 20
0.0405
 30
0.0
 40
0.067717
 41
0.028
 71
     5
 72
     5
  1
\C7;\f¸¼Àº °íµñ|b0|i0|;\H0.06771731351316;F\PS\PC\PM\P \P\M+3B9F8\P\M+3C8A3
  7
HORIZONTALWHGTXT
  0
LINE
  5
129
100
AcDbEntity
  8
0
  6
CONTINUOUS
 62
     7
100
AcDbLine
 10
0.113008
 20
0.0385
 30
0.0
 11
0.113008
 21
0.0425
 31
0.0
  0
LINE
  5
12A
100
AcDbEntity
  8
0
  6
CONTINUOUS
 62
     7
100
AcDbLine
 10
0.113008
 20
0.0425
 30
0.0
 11
0.166
 21
0.0425
 31
0.0
  0
LINE
  5
12B
100
AcDbEntity
  8
0
  6
CONTINUOUS
 62
     7
100
AcDbLine
 10
0.166
 20
0.0425
 30
0.0
 11
0.166
 21
0.0385
 31
0.0
  0
MTEXT
  5
12C
100
AcDbEntity
  8
0
100
AcDbMText
 10
0.139504
 20
0.0405
 30
0.0
 40
0.067717
 41
0.052992
 71
     5
 72
     5
  1
\C7;\f¸¼Àº °íµñ|b0|i0|;\H0.06771731351316;D\PW\PG\P \P\M+3B9F8\P\M+3C8A3
  7
HORIZONTALWHGTXT
  0
LINE
  5
12D
100
AcDbEntity
  8
0
  6
CONTINUOUS
 62
     7
100
AcDbLine
 10
0.165992
 20
0.0385
 30
0.0
 11
0.165992
 21
0.0425
 31
0.0
  0
LINE
  5
12E
100
AcDbEntity
  8
0
  6
CONTINUOUS
 62
     7
100
AcDbLine
 10
0.165992
 20
0.0425
 30
0.0
 11
0.179992
 21
0.0425
 31
0.0
  0
LINE
  5
12F
100
AcDbEntity
  8
0
  6
CONTINUOUS
 62
     7
100
AcDbLine
 10
0.179992
 20
0.0425
 30
0.0
 11
0.179992
 21
0.0385
 31
0.0
  0
MTEXT
  5
130
100
AcDbEntity
  8
0
100
AcDbMText
 10
0.172992
 20
0.0405
 30
0.0
 40
0.067717
 41
0.014
 71
     5
 72
     5
  1
\C7;\f¸¼Àº °íµñ|b0|i0|;\H0.06771731351316;\M+3BCF6\P\M+3C1A4
  7
HORIZONTALWHGTXT
  0
LINE
  5
131
100
AcDbEntity
  8
0
  6
CONTINUOUS
 62
     7
100
AcDbLine
 10
0.071608
 20
0.0385
 30
0.0
 11
0.071608
 21
0.0325
 31
0.0
  0
LINE
  5
132
100
AcDbEntity
  8
0
  6
CONTINUOUS
 62
     7
100
AcDbLine
 10
0.071608
 20
0.0325
 30
0.0
 11
0.085
 21
0.0325
 31
0.0
  0
LINE
  5
133
100
AcDbEntity
  8
0
  6
CONTINUOUS
 62
     7
100
AcDbLine
 10
0.085
 20
0.0325
 30
0.0
 11
0.085
 21
0.0385
 31
0.0
  0
LINE
  5
134
100
AcDbEntity
  8
0
  6
CONTINUOUS
 62
     7
100
AcDbLine
 10
0.085008
 20
0.0385
 30
0.0
 11
0.085008
 21
0.0325
 31
0.0
  0
LINE
  5
135
100
AcDbEntity
  8
0
  6
CONTINUOUS
 62
     7
100
AcDbLine
 10
0.085008
 20
0.0325
 30
0.0
 11
0.113008
 21
0.0325
 31
0.0
  0
LINE
  5
136
100
AcDbEntity
  8
0
  6
CONTINUOUS
 62
     7
100
AcDbLine
 10
0.113008
 20
0.0325
 30
0.0
 11
0.113008
 21
0.0385
 31
0.0
  0
LINE
  5
137
100
AcDbEntity
  8
0
  6
CONTINUOUS
 62
     7
100
AcDbLine
 10
0.113008
 20
0.0385
 30
0.0
 11
0.113008
 21
0.0325
 31
0.0
  0
LINE
  5
138
100
AcDbEntity
  8
0
  6
CONTINUOUS
 62
     7
100
AcDbLine
 10
0.113008
 20
0.0325
 30
0.0
 11
0.166
 21
0.0325
 31
0.0
  0
LINE
  5
139
100
AcDbEntity
  8
0
  6
CONTINUOUS
 62
     7
100
AcDbLine
 10
0.166
 20
0.0325
 30
0.0
 11
0.166
 21
0.0385
 31
0.0
  0
LINE
  5
13A
100
AcDbEntity
  8
0
  6
CONTINUOUS
 62
     7
100
AcDbLine
 10
0.165992
 20
0.0385
 30
0.0
 11
0.165992
 21
0.0325
 31
0.0
  0
LINE
  5
13B
100
AcDbEntity
  8
0
  6
CONTINUOUS
 62
     7
100
AcDbLine
 10
0.165992
 20
0.0325
 30
0.0
 11
0.179992
 21
0.0325
 31
0.0
  0
LINE
  5
13C
100
AcDbEntity
  8
0
  6
CONTINUOUS
 62
     7
100
AcDbLine
 10
0.179992
 20
0.0325
 30
0.0
 11
0.179992
 21
0.0385
 31
0.0
  0
LINE
  5
13D
100
AcDbEntity
  8
0
  6
CONTINUOUS
 62
     7
100
AcDbLine
 10
0.089
 20
0.0325
 30
0.0
 11
0.071608
 21
0.0325
 31
0.0
  0
LINE
  5
13E
100
AcDbEntity
  8
0
  6
CONTINUOUS
 62
     7
100
AcDbLine
 10
0.071608
 20
0.0325
 30
0.0
 11
0.071608
 21
0.0275
 31
0.0
  0
LINE
  5
13F
100
AcDbEntity
  8
0
  6
CONTINUOUS
 62
     7
100
AcDbLine
 10
0.071608
 20
0.0275
 30
0.0
 11
0.089
 21
0.0275
 31
0.0
  0
MTEXT
  5
140
100
AcDbEntity
  8
0
100
AcDbMText
 10
0.085719
 20
0.03
 30
0.0
 40
0.067717
 41
0.017392
 71
     4
 72
     5
  1
\C7;\f¸¼Àº °íµñ|b0|i0|;\H0.06771731351316;\M+3B9E8\P\M+3C0B2
  7
HORIZONTALWHGTXT
  0
LINE
  5
141
100
AcDbEntity
  8
\U+AC74\U+BB3C_\U+C678\U+BCBD
  6
CONTINUOUS
100
AcDbLine
 10
0.089008
 20
0.0275
 30
0.0
 11
0.104656
 21
0.0275
 31
0.0
  0
LINE
  5
142
100
AcDbEntity
  8
\U+AC74\U+BB3C_\U+C678\U+BCBD
  6
CONTINUOUS
100
AcDbLine
 10
0.104656
 20
0.0275
 30
0.0
 11
0.104656
 21
0.0325
 31
0.0
  0
LINE
  5
143
100
AcDbEntity
  8
\U+AC74\U+BB3C_\U+C678\U+BCBD
  6
CONTINUOUS
100
AcDbLine
 10
0.104656
 20
0.0325
 30
0.0
 11
0.089008
 21
0.0325
 31
0.0
  0
MTEXT
  5
144
100
AcDbEntity
  8
\U+AC74\U+BB3C_\U+C678\U+BCBD
100
AcDbMText
 10
0.096832
 20
0.03
 30
0.0
 40
0.067717
 41
0.015648
 71
     5
 72
     5
  1
\C7;\f¸¼Àº °íµñ|b0|i0|;\H0.06771731351316;1\P:\P1
  7
HORIZONTALWHGTXT
  0
LWPOLYLINE
  5
145
100
AcDbEntity
  8
0
  6
CONTINUOUS
 62
     7
100
AcDbPolyline
 90
        4
 70
     1
 10
0.104645
 20
0.0275
 10
0.134581
 20
0.0275
 10
0.134581
 20
0.0325
 10
0.104645
 20
0.0325
  0
LINE
  5
146
100
AcDbEntity
  8
0
  6
CONTINUOUS
 62
     7
100
AcDbLine
 10
0.152496
 20
0.0325
 30
0.0
 11
0.134576
 21
0.0325
 31
0.0
  0
LINE
  5
147
100
AcDbEntity
  8
0
  6
CONTINUOUS
 62
     7
100
AcDbLine
 10
0.134576
 20
0.0325
 30
0.0
 11
0.134576
 21
0.0275
 31
0.0
  0
LINE
  5
148
100
AcDbEntity
  8
0
  6
CONTINUOUS
 62
     7
100
AcDbLine
 10
0.134576
 20
0.0275
 30
0.0
 11
0.152496
 21
0.0275
 31
0.0
  0
MTEXT
  5
149
100
AcDbEntity
  8
0
100
AcDbMText
 10
0.148687
 20
0.03
 30
0.0
 40
0.067717
 41
0.01792
 71
     4
 72
     5
  1
\C7;\f¸¼Àº °íµñ|b0|i0|;\H0.06771731351316;\M+3BDC3\P\M+3C6AE
  7
HORIZONTALWHGTXT
  0
LINE
  5
14A
100
AcDbEntity
  8
0
  6
CONTINUOUS
 62
     7
100
AcDbLine
 10
0.152504
 20
0.0325
 30
0.0
 11
0.180008
 21
0.0325
 31
0.0
  0
LINE
  5
14B
100
AcDbEntity
  8
0
  6
CONTINUOUS
 62
     7
100
AcDbLine
 10
0.180008
 20
0.0325
 30
0.0
 11
0.180008
 21
0.0275
 31
0.0
  0
LINE
  5
14C
100
AcDbEntity
  8
0
  6
CONTINUOUS
 62
     7
100
AcDbLine
 10
0.180008
 20
0.0275
 30
0.0
 11
0.152504
 21
0.0275
 31
0.0
  0
MTEXT
  5
14D
100
AcDbEntity
  8
0
100
AcDbMText
 10
0.166256
 20
0.03
 30
0.0
 40
0.067717
 41
0.027504
 71
     5
 72
     5
  1
\C7;\f¸¼Àº °íµñ|b0|i0|;\H0.06771731351316;1\P \P/\P \P1
  7
HORIZONTALWHGTXT
  0
ENDBLK
  5
14E
100
AcDbEntity
  8
0
100
AcDbBlockEnd
  0
BLOCK
  5
150
100
AcDbEntity
  8
0
100
AcDbBlockBegin
  2
\U+C218\U+C815__\U+D06C\U+AC8C
 70
     0
 10
0.0
 20
0.0
 30
0.0
  3
\U+C218\U+C815__\U+D06C\U+AC8C
  1

  0
LWPOLYLINE
  5
151
100
AcDbEntity
  8
0
  6
CONTINUOUS
 62
     7
100
AcDbPolyline
 90
        4
 70
     1
 10
0.02
 20
0.05
 10
0.18
 20
0.05
 10
0.18
 20
0.055
 10
0.02
 20
0.055
  0
MTEXT
  5
152
100
AcDbEntity
  8
0
100
AcDbMText
 10
0.1
 20
0.0525
 30
0.0
 40
0.067717
 41
0.16
 71
     5
 72
     5
  1
\C7;\f¸¼Àº °íµñ|b0|i0|;\H0.06771731351316;\M+3BCF6\P\M+3C1A4 \P\M+3B3BB\P\M+3BFEB
  7
HORIZONTALWHGTXT
  0
LWPOLYLINE
  5
153
100
AcDbEntity
  8
0
  6
CONTINUOUS
 62
     7
100
AcDbPolyline
 90
        4
 70
     1
 10
0.02
 20
0.045
 10
0.036
 20
0.045
 10
0.036
 20
0.05
 10
0.02
 20
0.05
  0
MTEXT
  5
154
100
AcDbEntity
  8
0
100
AcDbMText
 10
0.028
 20
0.0475
 30
0.0
 40
0.067717
 41
0.016
 71
     5
 72
     5
  1
\C7;\f¸¼Àº °íµñ|b0|i0|;\H0.06771731351316;\M+3BCF6\P\M+3C1A4
  7
HORIZONTALWHGTXT
  0
LWPOLYLINE
  5
155
100
AcDbEntity
  8
0
  6
CONTINUOUS
 62
     7
100
AcDbPolyline
 90
        4
 70
     1
 10
0.036
 20
0.045
 10
0.13
 20
0.045
 10
0.13
 20
0.05
 10
0.036
 20
0.05
  0
MTEXT
  5
156
100
AcDbEntity
  8
0
100
AcDbMText
 10
0.083
 20
0.0475
 30
0.0
 40
0.067717
 41
0.094
 71
     5
 72
     5
  1
\C7;\f¸¼Àº °íµñ|b0|i0|;\H0.06771731351316;\M+3BCB3\P\M+3B8ED
  7
HORIZONTALWHGTXT
  0
LWPOLYLINE
  5
157
100
AcDbEntity
  8
0
  6
CONTINUOUS
 62
     7
100
AcDbPolyline
 90
        4
 70
     1
 10
0.13
 20
0.045
 10
0.152
 20
0.045
 10
0.152
 20
0.05
 10
0.13
 20
0.05
  0
MTEXT
  5
158
100
AcDbEntity
  8
0
100
AcDbMText
 10
0.141
 20
0.0475
 30
0.0
 40
0.067717
 41
0.022
 71
     5
 72
     5
  1
\C7;\f¸¼Àº °íµñ|b0|i0|;\H0.06771731351316;\M+3B3AF\P\M+3C2A5
  7
HORIZONTALWHGTXT
  0
LWPOLYLINE
  5
159
100
AcDbEntity
  8
0
  6
CONTINUOUS
 62
     7
100
AcDbPolyline
 90
        4
 70
     1
 10
0.152
 20
0.045
 10
0.18
 20
0.045
 10
0.18
 20
0.05
 10
0.152
 20
0.05
  0
MTEXT
  5
15A
100
AcDbEntity
  8
0
100
AcDbMText
 10
0.166
 20
0.0475
 30
0.0
 40
0.067717
 41
0.028
 71
     5
 72
     5
  1
\C7;\f¸¼Àº °íµñ|b0|i0|;\H0.06771731351316;\M+3BDC2\P\M+3C0CE
  7
HORIZONTALWHGTXT
  0
ENDBLK
  5
15B
100
AcDbEntity
  8
0
100
AcDbBlockEnd
  0
BLOCK
  5
15D
100
AcDbEntity
  8
0
100
AcDbBlockBegin
  2
\U+C218\U+C815__\U+C791\U+AC8C
 70
     0
 10
0.0
 20
0.0
 30
0.0
  3
\U+C218\U+C815__\U+C791\U+AC8C
  1

  0
LWPOLYLINE
  5
15E
100
AcDbEntity
  8
0
  6
CONTINUOUS
 62
     7
100
AcDbPolyline
 90
        4
 70
     1
 10
0.04
 20
0.05
 10
0.16
 20
0.05
 10
0.16
 20
0.055
 10
0.04
 20
0.055
  0
MTEXT
  5
15F
100
AcDbEntity
  8
0
100
AcDbMText
 10
0.1
 20
0.0525
 30
0.0
 40
0.067717
 41
0.12
 71
     5
 72
     5
  1
\C7;\f¸¼Àº °íµñ|b0|i0|;\H0.06771731351316;\M+3BCF6\P\M+3C1A4 \P\M+3B3BB\P\M+3BFEB
  7
HORIZONTALWHGTXT
  0
LWPOLYLINE
  5
160
100
AcDbEntity
  8
0
  6
CONTINUOUS
 62
     7
100
AcDbPolyline
 90
        4
 70
     1
 10
0.04
 20
0.045
 10
0.054
 20
0.045
 10
0.054
 20
0.05
 10
0.04
 20
0.05
  0
MTEXT
  5
161
100
AcDbEntity
  8
0
100
AcDbMText
 10
0.047
 20
0.0475
 30
0.0
 40
0.067717
 41
0.014
 71
     5
 72
     5
  1
\C7;\f¸¼Àº °íµñ|b0|i0|;\H0.06771731351316;\M+3BCF6\P\M+3C1A4
  7
HORIZONTALWHGTXT
  0
LWPOLYLINE
  5
162
100
AcDbEntity
  8
0
  6
CONTINUOUS
 62
     7
100
AcDbPolyline
 90
        4
 70
     1
 10
0.054
 20
0.045
 10
0.114
 20
0.045
 10
0.114
 20
0.05
 10
0.054
 20
0.05
  0
MTEXT
  5
163
100
AcDbEntity
  8
0
100
AcDbMText
 10
0.084
 20
0.0475
 30
0.0
 40
0.067717
 41
0.06
 71
     5
 72
     5
  1
\C7;\f¸¼Àº °íµñ|b0|i0|;\H0.06771731351316;\M+3BCB3\P\M+3B8ED
  7
HORIZONTALWHGTXT
  0
LWPOLYLINE
  5
164
100
AcDbEntity
  8
0
  6
CONTINUOUS
 62
     7
100
AcDbPolyline
 90
        4
 70
     1
 10
0.114
 20
0.045
 10
0.134
 20
0.045
 10
0.134
 20
0.05
 10
0.114
 20
0.05
  0
MTEXT
  5
165
100
AcDbEntity
  8
0
100
AcDbMText
 10
0.124
 20
0.0475
 30
0.0
 40
0.067717
 41
0.02
 71
     5
 72
     5
  1
\C7;\f¸¼Àº °íµñ|b0|i0|;\H0.06771731351316;\M+3B3AF\P\M+3C2A5
  7
HORIZONTALWHGTXT
  0
LWPOLYLINE
  5
166
100
AcDbEntity
  8
0
  6
CONTINUOUS
 62
     7
100
AcDbPolyline
 90
        4
 70
     1
 10
0.134
 20
0.045
 10
0.16
 20
0.045
 10
0.16
 20
0.05
 10
0.134
 20
0.05
  0
MTEXT
  5
167
100
AcDbEntity
  8
0
100
AcDbMText
 10
0.147
 20
0.0475
 30
0.0
 40
0.067717
 41
0.026
 71
     5
 72
     5
  1
\C7;\f¸¼Àº °íµñ|b0|i0|;\H0.06771731351316;\M+3BDC2\P\M+3C0CE
  7
HORIZONTALWHGTXT
  0
ENDBLK
  5
168
100
AcDbEntity
  8
0
100
AcDbBlockEnd
  0
BLOCK
  5
16A
100
AcDbEntity
  8
0
100
AcDbBlockBegin
  2
\U+BE14\U+B85D_-_\U+CE21\U+BA74_\U+B808\U+C774\U+BE14
 70
     0
 10
0.0
 20
0.0
 30
0.0
  3
\U+BE14\U+B85D_-_\U+CE21\U+BA74_\U+B808\U+C774\U+BE14
  1

  0
LINE
  5
16B
100
AcDbEntity
  8
0
  6
CONTINUOUS
 62
     7
100
AcDbLine
 10
0.045601
 20
0.049
 30
0.0
 11
0.03
 21
0.049
 31
0.0
  0
LINE
  5
16C
100
AcDbEntity
  8
0
  6
CONTINUOUS
 62
     7
100
AcDbLine
 10
0.03
 20
0.049
 30
0.0
 11
0.03
 21
0.054
 31
0.0
  0
LINE
  5
16D
100
AcDbEntity
  8
0
  6
CONTINUOUS
 62
     7
100
AcDbLine
 10
0.03
 20
0.054
 30
0.0
 11
0.045601
 21
0.054
 31
0.0
  0
MTEXT
  5
16E
100
AcDbEntity
  8
0
100
AcDbMText
 10
0.044111
 20
0.0515
 30
0.0
 40
0.067717
 41
0.015601
 71
     4
 72
     5
  1
\C7;\f¸¼Àº °íµñ|b0|i0|;\H0.06771731351316;\M+3B7B9\P\M+3C0CC\P\M+3BAED
  7
HORIZONTALWHGTXT
  0
LINE
  5
16F
100
AcDbEntity
  8
0
  6
CONTINUOUS
 62
     7
100
AcDbLine
 10
0.045601
 20
0.049
 30
0.0
 11
0.07
 21
0.049
 31
0.0
  0
LINE
  5
170
100
AcDbEntity
  8
0
  6
CONTINUOUS
 62
     7
100
AcDbLine
 10
0.07
 20
0.049
 30
0.0
 11
0.07
 21
0.054
 31
0.0
  0
LINE
  5
171
100
AcDbEntity
  8
0
  6
CONTINUOUS
 62
     7
100
AcDbLine
 10
0.07
 20
0.054
 30
0.0
 11
0.045601
 21
0.054
 31
0.0
  0
MTEXT
  5
172
100
AcDbEntity
  8
0
100
AcDbMText
 10
0.0578
 20
0.0515
 30
0.0
 40
0.067717
 41
0.024399
 71
     5
 72
     5
  1
\C7;\f¸¼Àº °íµñ|b0|i0|;\H0.06771731351316;\M+3C7CA\P\M+3B5E5
  7
HORIZONTALWHGTXT
  0
ENDBLK
  5
173
100
AcDbEntity
  8
0
100
AcDbBlockEnd
  0
BLOCK
  5
175
100
AcDbEntity
  8
0
100
AcDbBlockBegin
  2
\U+C139\U+C158_\U+BA38\U+B9AC\U+AE00
 70
     0
 10
0.0
 20
0.0
 30
0.0
  3
\U+C139\U+C158_\U+BA38\U+B9AC\U+AE00
  1

  0
LWPOLYLINE
  5
176
100
AcDbEntity
  8
0
  6
CONTINUOUS
 62
     7
100
AcDbPolyline
 90
        4
 70
     1
 10
0.0125
 20
0.0475
 10
0.0875
 20
0.0475
 10
0.0875
 20
0.0525
 10
0.0125
 20
0.0525
  0
MTEXT
  5
177
100
AcDbEntity
  8
0
100
AcDbMText
 10
0.05
 20
0.05
 30
0.0
 40
0.067717
 41
0.075
 71
     5
 72
     5
  1
\C7;\f¸¼Àº °íµñ|b0|i0|;\H0.06771731351316;\M+3BCBD\P\M+3BCC7\P \P\M+3B8D3\P\M+3B8AE\P\M+3B1DB
  7
HORIZONTALWHGTXT
  0
ENDBLK
  5
178
100
AcDbEntity
  8
0
100
AcDbBlockEnd
  0
BLOCK
  5
17A
100
AcDbEntity
  8
0
100
AcDbBlockBegin
  2
\U+BE14\U+B85D_-_\U+C0C1\U+B2E8_\U+B808\U+C774\U+BE14
 70
     0
 10
0.0
 20
0.0
 30
0.0
  3
\U+BE14\U+B85D_-_\U+C0C1\U+B2E8_\U+B808\U+C774\U+BE14
  1

  0
LINE
  5
17B
100
AcDbEntity
  8
0
  6
CONTINUOUS
 62
     7
100
AcDbLine
 10
0.03
 20
0.047469
 30
0.0
 11
0.03
 21
0.05375
 31
0.0
  0
LINE
  5
17C
100
AcDbEntity
  8
0
  6
CONTINUOUS
 62
     7
100
AcDbLine
 10
0.03
 20
0.05375
 30
0.0
 11
0.07
 21
0.05375
 31
0.0
  0
LINE
  5
17D
100
AcDbEntity
  8
0
  6
CONTINUOUS
 62
     7
100
AcDbLine
 10
0.07
 20
0.05375
 30
0.0
 11
0.07
 21
0.047469
 31
0.0
  0
MTEXT
  5
17E
100
AcDbEntity
  8
0
100
AcDbMText
 10
0.044111
 20
0.05061
 30
0.0
 40
0.067717
 41
0.04
 71
     4
 72
     5
  1
\C7;\f¸¼Àº °íµñ|b0|i0|;\H0.06771731351316;\M+3B7B9\P\M+3C0CC\P\M+3BAED
  7
HORIZONTALWHGTXT
  0
LINE
  5
17F
100
AcDbEntity
  8
0
  6
CONTINUOUS
 62
     7
100
AcDbLine
 10
0.03
 20
0.047469
 30
0.0
 11
0.03
 21
0.04625
 31
0.0
  0
LINE
  5
180
100
AcDbEntity
  8
0
  6
CONTINUOUS
 62
     7
100
AcDbLine
 10
0.03
 20
0.04625
 30
0.0
 11
0.07
 21
0.04625
 31
0.0
  0
LINE
  5
181
100
AcDbEntity
  8
0
  6
CONTINUOUS
 62
     7
100
AcDbLine
 10
0.07
 20
0.04625
 30
0.0
 11
0.07
 21
0.047469
 31
0.0
  0
MTEXT
  5
182
100
AcDbEntity
  8
0
100
AcDbMText
 10
0.05
 20
0.044152
 30
0.0
 40
0.067717
 41
0.04
 71
     5
 72
     5
  1
\C7;\f¸¼Àº °íµñ|b0|i0|;\H0.06771731351316;\M+3C7CA\P\M+3B5E5
  7
HORIZONTALWHGTXT
  0
ENDBLK
  5
183
100
AcDbEntity
  8
0
100
AcDbBlockEnd
  0
BLOCK
  5
185
100
AcDbEntity
  8
0
100
AcDbBlockBegin
  2
\U+C0AC\U+AC01\U+D615
 70
     0
 10
0.0
 20
0.0
 30
0.0
  3
\U+C0AC\U+AC01\U+D615
  1

  0
LWPOLYLINE
  5
186
100
AcDbEntity
  8
0
  6
CONTINUOUS
 62
     7
100
AcDbPolyline
 90
        4
 70
     1
 10
0.04
 20
0.0375
 10
0.06
 20
0.0375
 10
0.06
 20
0.0625
 10
0.04
 20
0.0625
  0
ENDBLK
  5
187
100
AcDbEntity
  8
0
100
AcDbBlockEnd
  0
ENDSEC
  0
SECTION
  2
ENTITIES
  0
LWPOLYLINE
  5
31
102
{ACAD_REACTORS
330
36
102
}
100
AcDbEntity
  8
0
  6
CONTINUOUS
 62
     7
100
AcDbPolyline
 90
        4
 70
     1
 10
5.2
 20
2.0
 10
10.8
 20
2.0
 10
10.8
 20
9.0
 10
5.2
 20
9.0
  0
ENDSEC
  0
SECTION
  2
OBJECTS
  0
DICTIONARY
  5
C
100
AcDbDictionary
  3
ACAD_GROUP
350
D
  3
ACAD_MLINESTYLE
350
1B
  0
DICTIONARY
  5
D
102
{ACAD_REACTORS
330
C
102
}
100
AcDbDictionary
  0
DICTIONARY
  5
1B
102
{ACAD_REACTORS
330
C
102
}
100
AcDbDictionary
  3
STANDARD
350
1C
  0
MLINESTYLE
  5
1C
102
{ACAD_REACTORS
330
1B
102
}
100
AcDbMlineStyle
  2
STANDARD
 70
     0
  3

 62
   256
 51
90.0
 52
90.0
 71
     2
 49
0.5
 62
   256
  6
BYLAYER
 49
-0.5
 62
   256
  6
BYLAYER
  0
DICTIONARY
  5
29
102
{ACAD_REACTORS
330
C
102
}
100
AcDbDictionary
  3
MODEL
350
2A
  3
LAYOUT1
350
2B
  0
DICTIONARY
  5
2C
102
{ACAD_REACTORS
330
C
102
}
100
AcDbDictionary
  0
ENDSEC
  0
EOF
